<svg xmlns="http://www.w3.org/2000/svg" width="960" height="265" viewBox="0 0 960 265" role="img" aria-labelledby="title desc"><title id="title">Sobre mim</title><desc id="desc">Resumo profissional e preferências de trabalho</desc><style>
		.text{font-family:ui-monospace,SFMono-Regular,Menlo,Consolas,monospace;fill:#dbeafe}
		.muted{fill:#93a4b8}.dim{fill:#64748b}.accent{fill:#38bdf8}.strong{fill:#0ea5e9}.soft{fill:#7dd3fc}
		.label{font-size:15px;font-weight:700}.body{font-size:15px}.small{font-size:13px}
	</style><rect width="960" height="100%" rx="18" fill="#0d1117"/><rect x="1" y="1" width="958" height="100%" rx="17" fill="none" stroke="#263244"/><circle cx="28" cy="28" r="5" fill="#0ea5e9"/><circle cx="46" cy="28" r="5" fill="#38bdf8"/><circle cx="64" cy="28" r="5" fill="#7dd3fc"/><text x="88" y="34" class="text label">~/sobre-mim</text><line x1="20" y1="52" x2="940" y2="52" stroke="#263244" stroke-width="1"/><text x="38" y="92" class="text label">Full-Stack Developer em São Paulo.</text><text x="38" y="119" class="text body">Construo aplicações web, mobile e desktop, serviços de backend,</text><text x="38" y="146" class="text body">automações e ferramentas para desenvolvedores.</text><line x1="600" y1="76" x2="600" y2="230" stroke="#263244" stroke-width="1"/><text x="630" y="94" class="text label accent">gosto de construir</text><text x="630" y="128" class="text body">› produtos de ponta a ponta</text><text x="630" y="159" class="text body">› software rápido e explícito</text><text x="630" y="190" class="text body">› ferramentas que removem atrito</text><rect x="38" y="206" width="104" height="30" rx="8" fill="#172033" stroke="#263244"/><text x="50" y="226" class="text small">TypeScript</text><rect x="151" y="206" width="40" height="30" rx="8" fill="#111827" stroke="#0ea5e9"/><text x="163" y="226" class="text small">Go</text><rect x="200" y="206" width="64" height="30" rx="8" fill="#172033" stroke="#263244"/><text x="212" y="226" class="text small">React</text><rect x="273" y="206" width="120" height="30" rx="8" fill="#172033" stroke="#263244"/><text x="285" y="226" class="text small">React Native</text><rect x="402" y="206" width="80" height="30" rx="8" fill="#172033" stroke="#263244"/><text x="414" y="226" class="text small">Node.js</text></svg>