<svg xmlns="http://www.w3.org/2000/svg" width="960" height="390" viewBox="0 0 960 390" role="img" aria-labelledby="title desc"><title id="title">Atividade no GitHub</title><desc id="desc">Eventos públicos recentes no GitHub</desc><style>
		.text{font-family:ui-monospace,SFMono-Regular,Menlo,Consolas,monospace;fill:#cdd6f4}
		.muted{fill:#8b8ba7}.accent{fill:#b600ff}.cyan{fill:#00add8}
		.label{font-size:15px;font-weight:700}.body{font-size:15px}.small{font-size:13px}
	</style><rect width="960" height="100%" rx="18" fill="#0d0d1a"/><rect x="1" y="1" width="958" height="100%" rx="17" fill="none" stroke="#2a2a40"/><circle cx="28" cy="28" r="5" fill="#b600ff"/><circle cx="46" cy="28" r="5" fill="#9d4edd"/><circle cx="64" cy="28" r="5" fill="#00add8"/><text x="88" y="34" class="text label">~/atividade</text><line x1="20" y1="52" x2="940" y2="52" stroke="#2a2a40" stroke-width="1"/><text x="38" y="86" class="text small muted">eventos públicos · últimos 14 dias</text><rect x="38" y="177" width="20" height="8" rx="5" fill="#1a1a2e" stroke="#1a1a2e"/><text x="36" y="205" class="text small muted">01</text><rect x="69" y="177" width="20" height="8" rx="5" fill="#1a1a2e" stroke="#1a1a2e"/><rect x="100" y="169" width="20" height="16" rx="5" fill="#4b1763" stroke="#4b1763"/><rect x="131" y="177" width="20" height="8" rx="5" fill="#1a1a2e" stroke="#1a1a2e"/><text x="129" y="205" class="text small muted">04</text><rect x="162" y="128" width="20" height="57" rx="5" fill="#70208f" stroke="#70208f"/><rect x="193" y="124" width="20" height="61" rx="5" fill="#70208f" stroke="#70208f"/><rect x="224" y="169" width="20" height="16" rx="5" fill="#4b1763" stroke="#4b1763"/><text x="222" y="205" class="text small muted">07</text><rect x="255" y="116" width="20" height="69" rx="5" fill="#9327bb" stroke="#9327bb"/><rect x="286" y="177" width="20" height="8" rx="5" fill="#1a1a2e" stroke="#1a1a2e"/><rect x="317" y="103" width="20" height="82" rx="5" fill="#b600ff" stroke="#b600ff"/><text x="315" y="205" class="text small muted">10</text><rect x="348" y="177" width="20" height="8" rx="5" fill="#1a1a2e" stroke="#1a1a2e"/><rect x="379" y="177" width="20" height="8" rx="5" fill="#1a1a2e" stroke="#1a1a2e"/><rect x="410" y="169" width="20" height="16" rx="5" fill="#4b1763" stroke="#4b1763"/><text x="408" y="205" class="text small muted">13</text><rect x="441" y="169" width="20" height="16" rx="5" fill="#4b1763" stroke="#4b1763"/><line x1="490" y1="76" x2="490" y2="350" stroke="#2a2a40" stroke-width="1"/><text x="520" y="86" class="text label accent">atividade recente</text><text x="520" y="122" class="text body">branch criado em kristyancarvalho</text><text x="520" y="142" class="text small muted">14 Jun 2026</text><text x="520" y="167" class="text body">marcou anabastos/awesome-pesquisa com estrela</text><text x="520" y="187" class="text small muted">13 Jun 2026</text><text x="520" y="212" class="text body">marcou 5dwn/Discord-Lyrics-Selfbot-Status com…</text><text x="520" y="232" class="text small muted">10 Jun 2026</text><text x="520" y="257" class="text body">pull request integrada em disGOrd-lyrics</text><text x="520" y="277" class="text small muted">10 Jun 2026</text><text x="520" y="302" class="text body">push em disGOrd-lyrics</text><text x="520" y="322" class="text small muted">10 Jun 2026</text><text x="38" y="344" class="text small muted">A API pública registra eventos recentes; contribuições privadas não são incluídas.</text></svg>