<svg xmlns="http://www.w3.org/2000/svg" width="960" height="390" viewBox="0 0 960 390" role="img" aria-labelledby="title desc"><title id="title">Atividade no GitHub</title><desc id="desc">Eventos públicos recentes no GitHub</desc><style>
		.text{font-family:ui-monospace,SFMono-Regular,Menlo,Consolas,monospace;fill:#dbeafe}
		.muted{fill:#93a4b8}.dim{fill:#64748b}.accent{fill:#38bdf8}.strong{fill:#0ea5e9}.soft{fill:#7dd3fc}
		.label{font-size:15px;font-weight:700}.body{font-size:15px}.small{font-size:13px}
	</style><rect width="960" height="100%" rx="18" fill="#0d1117"/><rect x="1" y="1" width="958" height="100%" rx="17" fill="none" stroke="#263244"/><circle cx="28" cy="28" r="5" fill="#0ea5e9"/><circle cx="46" cy="28" r="5" fill="#38bdf8"/><circle cx="64" cy="28" r="5" fill="#7dd3fc"/><text x="88" y="34" class="text label">~/atividade</text><line x1="20" y1="52" x2="940" y2="52" stroke="#263244" stroke-width="1"/><text x="38" y="86" class="text small muted">eventos públicos · últimos 14 dias</text><rect x="38" y="177" width="20" height="8" rx="5" fill="#172033" stroke="#172033"/><text x="36" y="205" class="text small muted">11</text><rect x="69" y="177" width="20" height="8" rx="5" fill="#172033" stroke="#172033"/><rect x="100" y="177" width="20" height="8" rx="5" fill="#172033" stroke="#172033"/><rect x="131" y="177" width="20" height="8" rx="5" fill="#172033" stroke="#172033"/><text x="129" y="205" class="text small muted">14</text><rect x="162" y="177" width="20" height="8" rx="5" fill="#172033" stroke="#172033"/><rect x="193" y="129" width="20" height="56" rx="5" fill="#0369a1" stroke="#0369a1"/><rect x="224" y="103" width="20" height="82" rx="5" fill="#38bdf8" stroke="#38bdf8"/><text x="222" y="205" class="text small muted">17</text><rect x="255" y="158" width="20" height="27" rx="5" fill="#164e63" stroke="#164e63"/><rect x="286" y="168" width="20" height="17" rx="5" fill="#164e63" stroke="#164e63"/><rect x="317" y="171" width="20" height="14" rx="5" fill="#164e63" stroke="#164e63"/><text x="315" y="205" class="text small muted">20</text><rect x="348" y="172" width="20" height="13" rx="5" fill="#164e63" stroke="#164e63"/><rect x="379" y="172" width="20" height="13" rx="5" fill="#164e63" stroke="#164e63"/><rect x="410" y="177" width="20" height="8" rx="5" fill="#172033" stroke="#172033"/><text x="408" y="205" class="text small muted">23</text><rect x="441" y="172" width="20" height="13" rx="5" fill="#164e63" stroke="#164e63"/><line x1="490" y1="76" x2="490" y2="350" stroke="#263244" stroke-width="1"/><text x="520" y="86" class="text label accent">atividade recente</text><text x="520" y="122" class="text body">marcou libkrun/libkrun com estrela</text><text x="520" y="142" class="text small muted">24 Jun 2026</text><text x="520" y="167" class="text body">marcou dolthub/dolt com estrela</text><text x="520" y="187" class="text small muted">22 Jun 2026</text><text x="520" y="212" class="text body">marcou vercel/eve com estrela</text><text x="520" y="232" class="text small muted">18 Jun 2026</text><text x="520" y="257" class="text body">marcou rootless-containers/rootlesskit com es…</text><text x="520" y="277" class="text small muted">20 Jun 2026</text><text x="520" y="302" class="text body">marcou BurntSushi/toml com estrela</text><text x="520" y="322" class="text small muted">21 Jun 2026</text><text x="38" y="344" class="text small muted">A API pública registra eventos recentes; contribuições privadas não são incluídas.</text></svg>