<svg xmlns="http://www.w3.org/2000/svg" width="960" height="315" viewBox="0 0 960 315" role="img" aria-labelledby="title desc"><title id="title">Configuração</title><desc id="desc">Ambiente de desenvolvimento e ferramentas</desc><style>
		.text{font-family:ui-monospace,SFMono-Regular,Menlo,Consolas,monospace;fill:#cdd6f4}
		.muted{fill:#8b8ba7}.accent{fill:#b600ff}.cyan{fill:#00add8}
		.label{font-size:15px;font-weight:700}.body{font-size:15px}.small{font-size:13px}
	</style><rect width="960" height="100%" rx="18" fill="#0d0d1a"/><rect x="1" y="1" width="958" height="100%" rx="17" fill="none" stroke="#2a2a40"/><circle cx="28" cy="28" r="5" fill="#b600ff"/><circle cx="46" cy="28" r="5" fill="#9d4edd"/><circle cx="64" cy="28" r="5" fill="#00add8"/><text x="88" y="34" class="text label">~/.config</text><line x1="20" y1="52" x2="940" y2="52" stroke="#2a2a40" stroke-width="1"/><rect x="38" y="78" width="274" height="50" rx="9" fill="#131326" stroke="#2a2a40"/><text x="52" y="99" class="text small accent">os</text><text x="52" y="119" class="text body">Arch Linux</text><rect x="344" y="78" width="274" height="50" rx="9" fill="#131326" stroke="#2a2a40"/><text x="358" y="99" class="text small accent">wm</text><text x="358" y="119" class="text body">Hyprland</text><rect x="650" y="78" width="274" height="50" rx="9" fill="#131326" stroke="#2a2a40"/><text x="664" y="99" class="text small accent">terminal</text><text x="664" y="119" class="text body">Kitty</text><rect x="38" y="146" width="274" height="50" rx="9" fill="#131326" stroke="#2a2a40"/><text x="52" y="167" class="text small accent">shell</text><text x="52" y="187" class="text body">Zsh</text><rect x="344" y="146" width="274" height="50" rx="9" fill="#131326" stroke="#2a2a40"/><text x="358" y="167" class="text small accent">multiplexer</text><text x="358" y="187" class="text body">tmux</text><rect x="650" y="146" width="274" height="50" rx="9" fill="#131326" stroke="#2a2a40"/><text x="664" y="167" class="text small accent">editor</text><text x="664" y="187" class="text body">Neovim</text><rect x="38" y="214" width="274" height="50" rx="9" fill="#131326" stroke="#2a2a40"/><text x="52" y="235" class="text small accent">runtimes</text><text x="52" y="255" class="text body">Go · Node.js</text><rect x="344" y="214" width="274" height="50" rx="9" fill="#131326" stroke="#2a2a40"/><text x="358" y="235" class="text small accent">containers</text><text x="358" y="255" class="text body">Docker</text><rect x="650" y="214" width="274" height="50" rx="9" fill="#131326" stroke="#2a2a40"/><text x="664" y="235" class="text small accent">versionamento</text><text x="664" y="255" class="text body">Git</text></svg>