<svg xmlns="http://www.w3.org/2000/svg" width="960" height="225" viewBox="0 0 960 225" role="img" aria-labelledby="title desc"><title id="title">Configuração</title><desc id="desc">Ambiente de desenvolvimento e ferramentas</desc><style>
		.text{font-family:ui-monospace,SFMono-Regular,Menlo,Consolas,monospace;fill:#dbeafe}
		.muted{fill:#93a4b8}.dim{fill:#64748b}.accent{fill:#38bdf8}.strong{fill:#0ea5e9}.soft{fill:#7dd3fc}
		.label{font-size:15px;font-weight:700}.body{font-size:15px}.small{font-size:13px}
		.icon-label{font-family:ui-monospace,SFMono-Regular,Menlo,Consolas,monospace;font-size:8px;font-weight:700;text-anchor:middle}
	</style><rect width="960" height="100%" rx="18" fill="#0d1117"/><rect x="1" y="1" width="958" height="100%" rx="17" fill="none" stroke="#263244"/><circle cx="28" cy="28" r="5" fill="#0ea5e9"/><circle cx="46" cy="28" r="5" fill="#38bdf8"/><circle cx="64" cy="28" r="5" fill="#7dd3fc"/><text x="88" y="34" class="text label">~/.config</text><line x1="20" y1="52" x2="940" y2="52" stroke="#263244" stroke-width="1"/><rect x="38" y="76" width="165" height="54" rx="9" fill="#111827" stroke="#263244"/><path d="M12 2 2.5 21h4.2L12 11.8 17.3 21h4.2L12 2zm0 5.2 2.1 4.1-2.1-1.5-2.1 1.5L12 7.2z" transform="translate(50 92) scale(0.9167)" fill="#38bdf8" fill-rule="evenodd"/><text x="82" y="97" class="text small accent">os</text><text x="82" y="118" class="text small">Arch Linux</text><rect x="215" y="76" width="165" height="54" rx="9" fill="#111827" stroke="#263244"/><path d="M5 4h14v16H5V4zm2 3v10h10V7H7zm2 2h6v2H9V9zm0 4h4v2H9v-2z" transform="translate(227 92) scale(0.9167)" fill="#38bdf8" fill-rule="evenodd"/><text x="259" y="97" class="text small accent">wm</text><text x="259" y="118" class="text small">Hyprland</text><rect x="392" y="76" width="165" height="54" rx="9" fill="#111827" stroke="#263244"/><path d="M4 5h16v14H4V5zm2 2v10h12V7H6zm1 3 3 3-3 3 1.4 1.4 4.4-4.4-4.4-4.4L7 10zm6 5h4v-2h-4v2z" transform="translate(404 92) scale(0.9167)" fill="#38bdf8" fill-rule="evenodd"/><text x="436" y="97" class="text small accent">terminal</text><text x="436" y="118" class="text small">Kitty</text><rect x="569" y="76" width="165" height="54" rx="9" fill="#111827" stroke="#263244"/><path d="M4 6h16v12H4V6zm2 2v8h12V8H6zm1.2 2 2 2-2 2 1.2 1.2 3.2-3.2-3.2-3.2L7.2 10zM12 15h4v-1.8h-4V15z" transform="translate(581 92) scale(0.9167)" fill="#38bdf8" fill-rule="evenodd"/><text x="613" y="97" class="text small accent">shell</text><text x="613" y="118" class="text small">Zsh</text><rect x="746" y="76" width="165" height="54" rx="9" fill="#111827" stroke="#263244"/><path d="M4 4h16v16H4V4zm2 2v5h5V6H6zm7 0v5h5V6h-5zm-7 7v5h5v-5H6zm7 0v5h5v-5h-5z" transform="translate(758 92) scale(0.9167)" fill="#38bdf8" fill-rule="evenodd"/><text x="790" y="97" class="text small accent">multiplexer</text><text x="790" y="118" class="text small">tmux</text><rect x="38" y="144" width="165" height="54" rx="9" fill="#111827" stroke="#263244"/><path d="M4 5.5 8 3v13.5l-4 3V5.5zm5-.8L13 2l7 5v11l-4 4-7-12.2V4.7zm4 3.1 3 6V8.2l-3-2.1v1.7z" transform="translate(50 160) scale(0.9167)" fill="#38bdf8" fill-rule="evenodd"/><text x="82" y="165" class="text small accent">editor</text><text x="82" y="186" class="text small">Neovim</text><rect x="215" y="144" width="165" height="54" rx="9" fill="#111827" stroke="#263244"/><text x="238" y="174" class="icon-label" fill="#38bdf8">Go</text><text x="259" y="165" class="text small accent">runtime</text><text x="259" y="186" class="text small">Go</text><rect x="392" y="144" width="165" height="54" rx="9" fill="#111827" stroke="#263244"/><path d="M12 2 21 7v10l-9 5-9-5V7l9-5zm0 2.4L5.2 8.2v7.6l6.8 3.8 6.8-3.8V8.2L12 4.4z" transform="translate(404 160) scale(0.9167)" fill="#38bdf8" fill-rule="evenodd"/><text x="436" y="165" class="text small accent">runtime</text><text x="436" y="186" class="text small">Node.js</text><rect x="569" y="144" width="165" height="54" rx="9" fill="#111827" stroke="#263244"/><path d="M4 8h3v3H4V8zm4 0h3v3H8V8zm4 0h3v3h-3V8zm-4-4h3v3H8V4zm4 0h3v3h-3V4zm4 4h3v3h-3V8zM3 12h17c-.4 4.6-3.4 7-8.7 7C6.7 19 4 16.7 3 12z" transform="translate(581 160) scale(0.9167)" fill="#38bdf8" fill-rule="evenodd"/><text x="613" y="165" class="text small accent">containers</text><text x="613" y="186" class="text small">Docker</text><rect x="746" y="144" width="165" height="54" rx="9" fill="#111827" stroke="#263244"/><path d="M7 3a2 2 0 0 1 1.7 3l3.6 3.6a2 2 0 0 1 2.7 2.7l2 2a2 2 0 1 1-1.4 1.4l-2-2a2 2 0 0 1-2.7-2.7L7.3 7.4A2 2 0 1 1 7 3zm0 1.4a.6.6 0 1 0 0 1.2.6.6 0 0 0 0-1.2zm6.7 6.3a.6.6 0 1 0 0 1.2.6.6 0 0 0 0-1.2zm3.4 4.1a.6.6 0 1 0 0 1.2.6.6 0 0 0 0-1.2z" transform="translate(758 160) scale(0.9167)" fill="#38bdf8" fill-rule="evenodd"/><text x="790" y="165" class="text small accent">versionamento</text><text x="790" y="186" class="text small">Git</text></svg>