<svg xmlns="http://www.w3.org/2000/svg" width="960" height="225" viewBox="0 0 960 225" role="img" aria-labelledby="title desc"><title id="title">Configuração</title><desc id="desc">Ambiente de desenvolvimento e ferramentas</desc><style>
		.text{font-family:ui-monospace,SFMono-Regular,Menlo,Consolas,monospace;fill:#dbeafe}
		.muted{fill:#93a4b8}.dim{fill:#64748b}.accent{fill:#38bdf8}.strong{fill:#0ea5e9}.soft{fill:#7dd3fc}
		.label{font-size:15px;font-weight:700}.body{font-size:15px}.small{font-size:13px}
	</style><rect width="960" height="100%" rx="18" fill="#0d1117"/><rect x="1" y="1" width="958" height="100%" rx="17" fill="none" stroke="#263244"/><circle cx="28" cy="28" r="5" fill="#0ea5e9"/><circle cx="46" cy="28" r="5" fill="#38bdf8"/><circle cx="64" cy="28" r="5" fill="#7dd3fc"/><text x="88" y="34" class="text label">~/.config</text><line x1="20" y1="52" x2="940" y2="52" stroke="#263244" stroke-width="1"/><rect x="38" y="76" width="165" height="54" rx="9" fill="#111827" stroke="#263244"/><g transform="translate(50.0000 92.0000) scale(0.916667)" fill="#38bdf8"><path d="M11.39.605C10.376 3.092 9.764 4.72 8.635 7.132c.693.734 1.543 1.589 2.923 2.554-1.484-.61-2.496-1.224-3.252-1.86C6.86 10.842 4.596 15.138 0 23.395c3.612-2.085 6.412-3.37 9.021-3.862a6.61 6.61 0 01-.171-1.547l.003-.115c.058-2.315 1.261-4.095 2.687-3.973 1.426.12 2.534 2.096 2.478 4.409a6.52 6.52 0 01-.146 1.243c2.58.505 5.352 1.787 8.914 3.844-.702-1.293-1.33-2.459-1.929-3.57-.943-.73-1.926-1.682-3.933-2.713 1.38.359 2.367.772 3.137 1.234-6.09-11.334-6.582-12.84-8.67-17.74zM22.898 21.36v-.623h-.234v-.084h.562v.084h-.234v.623h.331v-.707h.142l.167.5.034.107a2.26 2.26 0 01.038-.114l.17-.493H24v.707h-.091v-.593l-.206.593h-.084l-.205-.602v.602h-.091"/></g><text x="82" y="97" class="text small accent">os</text><text x="82" y="118" class="text small">Arch Linux</text><rect x="215" y="76" width="165" height="54" rx="9" fill="#111827" stroke="#263244"/><g transform="translate(227.0000 92.0000) scale(0.916667)" fill="#38bdf8"><path d="M13.0998.001c.071.0753.1162.1116.1476.1576.5693.8424 1.13 1.691 1.7078 2.5277.3326.4816.6866.9486 1.0416 1.4141.3433.451.7058.8869 1.0494 1.3378.3975.5215.8003 1.0402 1.1696 1.5813.473.6933.9496 1.388 1.3588 2.1188.348.6213.626 1.285.8919 1.9477.1882.4691.3144.9646.4491 1.4537.0624.2267.0799.4659.1163.6994.0449.2858.1211.5717.1258.8583.0125.7465.0773 1.4954-.0528 2.2386-.1433.8195-.3832 1.6041-.74 2.3609-.3607.7646-.7978 1.4708-1.3328 2.1241-.4848.5921-1.054 1.0812-1.6697 1.5296-.452.329-.93.6085-1.4387.8306-.4577.1996-.9293.3597-1.4148.4951-1.0961.3052-2.2076.3722-3.3269.2934-.6747-.0474-1.3574-.1301-2-.3729-.5284-.1996-1.0606-.3967-1.5657-.6462-.3988-.1968-.781-.4435-1.131-.7183-.4591-.3604-.9097-.7418-1.3072-1.167-.356-.3808-.6644-.8153-.941-1.2587-.2916-.468-.5486-.9629-.7693-1.4687-.2385-.546-.3925-1.121-.518-1.71-.1953-.9164-.1322-1.8336-.0923-2.748.0229-.525.1615-1.0504.2945-1.5634.14-.541.3094-1.0786.5147-1.5983.2057-.5205.4445-1.0324.718-1.5204.3432-.6124.7218-1.2066 1.1121-1.7905.3543-.5304.7372-1.0423 1.1218-1.5513.3098-.41.6477-.7988.9614-1.206.3172-.4116.6224-.8326.9293-1.2522.3247-.4441.652-.8865.9656-1.3385.3979-.5728.781-1.156 1.1753-1.7314.0563-.0823.1383-.1475.2082-.2206.0139.0078.0278.0157.042.0235.003.0631.0082.1262.0082.1893.0004.9386.0053 1.8771-.006 2.8157-.0019.1376-.0578.2905-.1327.4085-.303.4795-.6127.9553-.9403 1.4184-.3105.4388-.6459.8601-.9703 1.289-.2673.3532-.5336.7068-.8027 1.0587-.1868.2441-.3829.4812-.5654.7286-.2552.3465-.5115.6933-.7496 1.0515-.2873.432-.57.8684-.828 1.3179-.1847.3215-.3302.6662-.4845 1.0041-.0856.1875-.1644.3793-.2267.5754-.1105.3479-.199.7026-.3094 1.0505-.3109.9774-.245 1.983-.1754 2.9764.0353.5044.2178 1.0035.3707 1.4933.2142.6858.5817 1.294.9963 1.88.283.4003.6042.762.9675 1.0822.299.263.6238.5051.9649.71.3882.2332.7924.4553 1.2163.6085.4523.1637.9303.2849 1.4073.3451.5678.0717 1.1464.0563 1.72.0834.5325.025 1.049-.0816 1.5659-.1832.6562-.129 1.2558-.412 1.8386-.7222.6969-.3707 1.2826-.8958 1.7955-1.4875.5244-.605.9646-1.285 1.2448-2.0319.2955-.7878.5418-1.603.5044-2.4688-.0203-.468.0053-.939-.0378-1.4041-.0317-.3426-.129-.6813-.2196-1.016-.1062-.3932-.215-.7878-.3622-1.1667-.1465-.3775-.3336-.7396-.5175-1.1014-.163-.3205-.3323-.6388-.5226-.9432a16.5743 16.5743 0 0 0-.7372-1.0848c-.3939-.5311-.8106-1.0451-1.2088-1.5727-.4662-.6177-.9314-1.2362-1.382-1.8654-.3889-.5425-.7596-1.0982-1.1303-1.6536-.0595-.0891-.107-.2064-.108-.3108-.0082-1.0156-.0053-2.0312-.0046-3.0467 0-.0339.0086-.0681.0206-.1583z"/></g><text x="259" y="97" class="text small accent">wm</text><text x="259" y="118" class="text small">Hyprland</text><rect x="392" y="76" width="165" height="54" rx="9" fill="#111827" stroke="#263244"/><g transform="translate(404.0000 92.0000) scale(0.916667)" fill="#38bdf8"><path d="M20,19V7H4V19H20M20,3A2,2 0 0,1 22,5V19A2,2 0 0,1 20,21H4A2,2 0 0,1 2,19V5C2,3.89 2.9,3 4,3H20M13,17V15H18V17H13M9.58,13L5.57,9H8.4L11.7,12.3C12.09,12.69 12.09,13.33 11.7,13.72L8.42,17H5.59L9.58,13Z"/></g><text x="436" y="97" class="text small accent">terminal</text><text x="436" y="118" class="text small">Kitty</text><rect x="569" y="76" width="165" height="54" rx="9" fill="#111827" stroke="#263244"/><g transform="translate(581.0000 92.0000) scale(0.916667)" fill="#38bdf8"><path d="M11.415 5.038a.58.58 0 0 0-.543.197L.135 18.021a.58.58 0 0 0 .071.814.58.58 0 0 0 .815-.07L11.757 5.979a.58.58 0 0 0-.07-.815.6.6 0 0 0-.272-.126m-8.113.317a3.133 3.133 0 0 0-3.12 3.12 3.13 3.13 0 0 0 3.12 3.119A3.133 3.133 0 0 0 6.42 8.475a3.13 3.13 0 0 0-3.119-3.119m0 1.806a1.3 1.3 0 0 1 1.314 1.313 1.3 1.3 0 0 1-1.314 1.312A1.3 1.3 0 0 1 1.99 8.475a1.3 1.3 0 0 1 1.312-1.314m5.253 5.253a3.13 3.13 0 0 0-3.119 3.119 3.13 3.13 0 0 0 3.12 3.118 3.133 3.133 0 0 0 3.118-3.12 3.133 3.133 0 0 0-3.119-3.118m0 1.805a1.3 1.3 0 0 1 1.313 1.314c0 .735-.577 1.312-1.312 1.312a1.3 1.3 0 0 1-1.314-1.312 1.3 1.3 0 0 1 1.313-1.314m7.201 3.276a.58.58 0 0 0-.578.578.58.58 0 0 0 .578.578h7.666a.58.58 0 0 0 .579-.578.58.58 0 0 0-.579-.578Z"/></g><text x="613" y="97" class="text small accent">shell</text><text x="613" y="118" class="text small">Zsh</text><rect x="746" y="76" width="165" height="54" rx="9" fill="#111827" stroke="#263244"/><g transform="translate(758.0000 92.0000) scale(0.916667)" fill="#38bdf8"><path d="M24 2.251V10.5H12.45V0h9.3A2.251 2.251 0 0 1 24 2.251zM12.45 11.4H24v10.5h-.008A2.25 2.25 0 0 1 21.75 24H2.25a2.247 2.247 0 0 1-2.242-2.1H0V2.251A2.251 2.251 0 0 1 2.25 0h9.3v21.6h.9V11.4zm11.242 10.5H.308a1.948 1.948 0 0 0 1.942 1.8h19.5a1.95 1.95 0 0 0 1.942-1.8z"/></g><text x="790" y="97" class="text small accent">multiplexer</text><text x="790" y="118" class="text small">tmux</text><rect x="38" y="144" width="165" height="54" rx="9" fill="#111827" stroke="#263244"/><g transform="translate(50.0000 160.0000) scale(0.916667)" fill="#38bdf8"><path d="M2.214 4.954v13.615L7.655 24V10.314L3.312 3.845 2.214 4.954zm4.999 17.98l-4.557-4.548V5.136l.59-.596 3.967 5.908v12.485zm14.573-4.457l-.862.937-4.24-6.376V0l5.068 5.092.034 13.385zM7.431.001l12.998 19.835-3.637 3.637L3.787 3.683 7.43 0z"/></g><text x="82" y="165" class="text small accent">editor</text><text x="82" y="186" class="text small">Neovim</text><rect x="215" y="144" width="165" height="54" rx="9" fill="#111827" stroke="#263244"/><g transform="translate(227.0000 160.0000) scale(0.916667)" fill="#38bdf8"><path d="M1.811 10.231c-.047 0-.058-.023-.035-.059l.246-.315c.023-.035.081-.058.128-.058h4.172c.046 0 .058.035.035.07l-.199.303c-.023.036-.082.07-.117.07zM.047 11.306c-.047 0-.059-.023-.035-.058l.245-.316c.023-.035.082-.058.129-.058h5.328c.047 0 .07.035.058.07l-.093.28c-.012.047-.058.07-.105.07zm2.828 1.075c-.047 0-.059-.035-.035-.07l.163-.292c.023-.035.07-.07.117-.07h2.337c.047 0 .07.035.07.082l-.023.28c0 .047-.047.082-.082.082zm12.129-2.36c-.736.187-1.239.327-1.963.514-.176.046-.187.058-.34-.117-.174-.199-.303-.327-.548-.444-.737-.362-1.45-.257-2.115.175-.795.514-1.204 1.274-1.192 2.22.011.935.654 1.706 1.577 1.835.795.105 1.46-.175 1.987-.77.105-.13.198-.27.315-.434H10.47c-.245 0-.304-.152-.222-.35.152-.362.432-.97.596-1.274a.315.315 0 01.292-.187h4.253c-.023.316-.023.631-.07.947a4.983 4.983 0 01-.958 2.29c-.841 1.11-1.94 1.8-3.33 1.986-1.145.152-2.209-.07-3.143-.77-.865-.655-1.356-1.52-1.484-2.595-.152-1.274.222-2.419.993-3.424.83-1.086 1.928-1.776 3.272-2.02 1.098-.2 2.15-.07 3.096.571.62.41 1.063.97 1.356 1.648.07.105.023.164-.117.2m3.868 6.461c-1.064-.024-2.034-.328-2.852-1.029a3.665 3.665 0 01-1.262-2.255c-.21-1.32.152-2.489.947-3.529.853-1.122 1.881-1.706 3.272-1.95 1.192-.21 2.314-.095 3.33.595.923.63 1.496 1.484 1.648 2.605.198 1.578-.257 2.863-1.344 3.962-.771.783-1.718 1.273-2.805 1.495-.315.06-.63.07-.934.106zm2.78-4.72c-.011-.153-.011-.27-.034-.387-.21-1.157-1.274-1.81-2.384-1.554-1.087.245-1.788.935-2.045 2.033-.21.912.234 1.835 1.075 2.21.643.28 1.285.244 1.905-.07.923-.48 1.425-1.228 1.484-2.233z"/></g><text x="259" y="165" class="text small accent">runtime</text><text x="259" y="186" class="text small">Go</text><rect x="392" y="144" width="165" height="54" rx="9" fill="#111827" stroke="#263244"/><g transform="translate(404.0000 160.0000) scale(0.916667)" fill="#38bdf8"><path d="M11.998,24c-0.321,0-0.641-0.084-0.922-0.247l-2.936-1.737c-0.438-0.245-0.224-0.332-0.08-0.383 c0.585-0.203,0.703-0.25,1.328-0.604c0.065-0.037,0.151-0.023,0.218,0.017l2.256,1.339c0.082,0.045,0.197,0.045,0.272,0l8.795-5.076 c0.082-0.047,0.134-0.141,0.134-0.238V6.921c0-0.099-0.053-0.192-0.137-0.242l-8.791-5.072c-0.081-0.047-0.189-0.047-0.271,0 L3.075,6.68C2.99,6.729,2.936,6.825,2.936,6.921v10.15c0,0.097,0.054,0.189,0.139,0.235l2.409,1.392 c1.307,0.654,2.108-0.116,2.108-0.89V7.787c0-0.142,0.114-0.253,0.256-0.253h1.115c0.139,0,0.255,0.112,0.255,0.253v10.021 c0,1.745-0.95,2.745-2.604,2.745c-0.508,0-0.909,0-2.026-0.551L2.28,18.675c-0.57-0.329-0.922-0.945-0.922-1.604V6.921 c0-0.659,0.353-1.275,0.922-1.603l8.795-5.082c0.557-0.315,1.296-0.315,1.848,0l8.794,5.082c0.57,0.329,0.924,0.944,0.924,1.603 v10.15c0,0.659-0.354,1.273-0.924,1.604l-8.794,5.078C12.643,23.916,12.324,24,11.998,24z M19.099,13.993 c0-1.9-1.284-2.406-3.987-2.763c-2.731-0.361-3.009-0.548-3.009-1.187c0-0.528,0.235-1.233,2.258-1.233 c1.807,0,2.473,0.389,2.747,1.607c0.024,0.115,0.129,0.199,0.247,0.199h1.141c0.071,0,0.138-0.031,0.186-0.081 c0.048-0.054,0.074-0.123,0.067-0.196c-0.177-2.098-1.571-3.076-4.388-3.076c-2.508,0-4.004,1.058-4.004,2.833 c0,1.925,1.488,2.457,3.895,2.695c2.88,0.282,3.103,0.703,3.103,1.269c0,0.983-0.789,1.402-2.642,1.402 c-2.327,0-2.839-0.584-3.011-1.742c-0.02-0.124-0.126-0.215-0.253-0.215h-1.137c-0.141,0-0.254,0.112-0.254,0.253 c0,1.482,0.806,3.248,4.655,3.248C17.501,17.007,19.099,15.91,19.099,13.993z"/></g><text x="436" y="165" class="text small accent">runtime</text><text x="436" y="186" class="text small">Node.js</text><rect x="569" y="144" width="165" height="54" rx="9" fill="#111827" stroke="#263244"/><g transform="translate(581.0000 160.0000) scale(0.916667)" fill="#38bdf8"><path d="M13.983 11.078h2.119a.186.186 0 00.186-.185V9.006a.186.186 0 00-.186-.186h-2.119a.185.185 0 00-.185.185v1.888c0 .102.083.185.185.185m-2.954-5.43h2.118a.186.186 0 00.186-.186V3.574a.186.186 0 00-.186-.185h-2.118a.185.185 0 00-.185.185v1.888c0 .102.082.185.185.185m0 2.716h2.118a.187.187 0 00.186-.186V6.29a.186.186 0 00-.186-.185h-2.118a.185.185 0 00-.185.185v1.887c0 .102.082.185.185.186m-2.93 0h2.12a.186.186 0 00.184-.186V6.29a.185.185 0 00-.185-.185H8.1a.185.185 0 00-.185.185v1.887c0 .102.083.185.185.186m-2.964 0h2.119a.186.186 0 00.185-.186V6.29a.185.185 0 00-.185-.185H5.136a.186.186 0 00-.186.185v1.887c0 .102.084.185.186.186m5.893 2.715h2.118a.186.186 0 00.186-.185V9.006a.186.186 0 00-.186-.186h-2.118a.185.185 0 00-.185.185v1.888c0 .102.082.185.185.185m-2.93 0h2.12a.185.185 0 00.184-.185V9.006a.185.185 0 00-.184-.186h-2.12a.185.185 0 00-.184.185v1.888c0 .102.083.185.185.185m-2.964 0h2.119a.185.185 0 00.185-.185V9.006a.185.185 0 00-.184-.186h-2.12a.186.186 0 00-.186.186v1.887c0 .102.084.185.186.185m-2.92 0h2.12a.185.185 0 00.184-.185V9.006a.185.185 0 00-.184-.186h-2.12a.185.185 0 00-.184.185v1.888c0 .102.082.185.185.185M23.763 9.89c-.065-.051-.672-.51-1.954-.51-.338.001-.676.03-1.01.087-.248-1.7-1.653-2.53-1.716-2.566l-.344-.199-.226.327c-.284.438-.49.922-.612 1.43-.23.97-.09 1.882.403 2.661-.595.332-1.55.413-1.744.42H.751a.751.751 0 00-.75.748 11.376 11.376 0 00.692 4.062c.545 1.428 1.355 2.48 2.41 3.124 1.18.723 3.1 1.137 5.275 1.137.983.003 1.963-.086 2.93-.266a12.248 12.248 0 003.823-1.389c.98-.567 1.86-1.288 2.61-2.136 1.252-1.418 1.998-2.997 2.553-4.4h.221c1.372 0 2.215-.549 2.68-1.009.309-.293.55-.65.707-1.046l.098-.288Z"/></g><text x="613" y="165" class="text small accent">containers</text><text x="613" y="186" class="text small">Docker</text><rect x="746" y="144" width="165" height="54" rx="9" fill="#111827" stroke="#263244"/><g transform="translate(758.0000 160.0000) scale(0.916667)" fill="#38bdf8"><path d="M13.09 23.549a1.54 1.54 0 0 1-2.18 0L.451 13.089a1.54 1.54 0 0 1 0-2.179l7.191-7.19 2.733 2.733a1.85 1.85 0 0 0 .964 2.326v6.66a1.849 1.849 0 1 0 1.54 0V8.957l2.508 2.508a1.85 1.85 0 1 0 1.09-1.09l-2.634-2.634a1.85 1.85 0 0 0-2.378-2.377L8.73 2.63 10.91.451a1.54 1.54 0 0 1 2.179 0l10.459 10.46a1.54 1.54 0 0 1 0 2.179z"/></g><text x="790" y="165" class="text small accent">versionamento</text><text x="790" y="186" class="text small">Git</text></svg>