<svg xmlns="http://www.w3.org/2000/svg" width="960" height="445" viewBox="0 0 960 445" role="img" aria-labelledby="title desc"><title id="title">Estatísticas do GitHub</title><desc id="desc">Resumo dos repositórios públicos</desc><style>
		.text{font-family:ui-monospace,SFMono-Regular,Menlo,Consolas,monospace;fill:#dbeafe}
		.muted{fill:#93a4b8}.dim{fill:#64748b}.accent{fill:#38bdf8}.strong{fill:#0ea5e9}.soft{fill:#7dd3fc}
		.label{font-size:15px;font-weight:700}.body{font-size:15px}.small{font-size:13px}
	</style><rect width="960" height="100%" rx="18" fill="#0d1117"/><rect x="1" y="1" width="958" height="100%" rx="17" fill="none" stroke="#263244"/><circle cx="28" cy="28" r="5" fill="#0ea5e9"/><circle cx="46" cy="28" r="5" fill="#38bdf8"/><circle cx="64" cy="28" r="5" fill="#7dd3fc"/><text x="88" y="34" class="text label">~/github</text><line x1="20" y1="52" x2="940" y2="52" stroke="#263244" stroke-width="1"/><rect x="38" y="76" width="190" height="64" rx="10" fill="#111827" stroke="#263244"/><text x="53" y="100" class="text small muted">repositórios</text><text x="53" y="126" class="text label accent">44</text><rect x="252" y="76" width="190" height="64" rx="10" fill="#111827" stroke="#263244"/><text x="267" y="100" class="text small muted">estrelas</text><text x="267" y="126" class="text label accent">32</text><rect x="466" y="76" width="190" height="64" rx="10" fill="#111827" stroke="#263244"/><text x="481" y="100" class="text small muted">forks</text><text x="481" y="126" class="text label accent">0</text><rect x="680" y="76" width="190" height="64" rx="10" fill="#111827" stroke="#263244"/><text x="695" y="100" class="text small muted">seguidores</text><text x="695" y="126" class="text label accent">36</text><text x="38" y="166" class="text label accent">linguagens principais</text><text x="38" y="205" class="text small">TypeScript</text><rect x="150" y="192" width="260" height="14" rx="7" fill="#172033" stroke="#263244"/><rect x="150" y="192" width="117" height="14" rx="7" fill="#0ea5e9" stroke="#0ea5e9"/><text x="420" y="205" class="text small muted">45%</text><text x="38" y="239" class="text small">Go</text><rect x="150" y="226" width="260" height="14" rx="7" fill="#172033" stroke="#263244"/><rect x="150" y="226" width="54" height="14" rx="7" fill="#0ea5e9" stroke="#0ea5e9"/><text x="420" y="239" class="text small muted">21%</text><text x="38" y="273" class="text small">JavaScript</text><rect x="150" y="260" width="260" height="14" rx="7" fill="#172033" stroke="#263244"/><rect x="150" y="260" width="28" height="14" rx="7" fill="#0ea5e9" stroke="#0ea5e9"/><text x="420" y="273" class="text small muted">11%</text><text x="38" y="307" class="text small">HTML</text><rect x="150" y="294" width="260" height="14" rx="7" fill="#172033" stroke="#263244"/><rect x="150" y="294" width="18" height="14" rx="7" fill="#0ea5e9" stroke="#0ea5e9"/><text x="420" y="307" class="text small muted">7%</text><text x="38" y="341" class="text small">CSS</text><rect x="150" y="328" width="260" height="14" rx="7" fill="#172033" stroke="#263244"/><rect x="150" y="328" width="10" height="14" rx="7" fill="#0ea5e9" stroke="#0ea5e9"/><text x="420" y="341" class="text small muted">4%</text><text x="500" y="166" class="text label accent">atualizados recentemente</text><text x="500" y="194" class="text label">openpilot.nvim</text><text x="500" y="216" class="text small muted">Lua · ★ 0 · há 8 dias</text><text x="500" y="248" class="text label">feedforge</text><text x="500" y="270" class="text small muted">TypeScript · ★ 1 · há 8 dias</text><text x="500" y="302" class="text label">msvg</text><text x="500" y="324" class="text small muted">TypeScript · ★ 0 · há 8 dias</text><line x1="38" y1="372" x2="922" y2="372" stroke="#263244" stroke-width="1"/><text x="38" y="405" class="text label accent">projetos em destaque</text><rect x="240" y="385" width="128" height="30" rx="8" fill="#111827" stroke="#0ea5e9"/><text x="252" y="405" class="text small">rendermd · Go</text><rect x="378" y="385" width="176" height="30" rx="8" fill="#111827" stroke="#0ea5e9"/><text x="390" y="405" class="text small">disGOrd-lyrics · Go</text><rect x="564" y="385" width="128" height="30" rx="8" fill="#111827" stroke="#0ea5e9"/><text x="576" y="405" class="text small">gitpulse · Go</text></svg>