<svg xmlns="http://www.w3.org/2000/svg" width="960" height="520" viewBox="0 0 960 520" role="img" aria-labelledby="title desc"><title id="title">Stack</title><desc id="desc">Tecnologias agrupadas por área</desc><style>
		.text{font-family:ui-monospace,SFMono-Regular,Menlo,Consolas,monospace;fill:#dbeafe}
		.muted{fill:#93a4b8}.dim{fill:#64748b}.accent{fill:#38bdf8}.strong{fill:#0ea5e9}.soft{fill:#7dd3fc}
		.label{font-size:15px;font-weight:700}.body{font-size:15px}.small{font-size:13px}
	</style><rect width="960" height="100%" rx="18" fill="#0d1117"/><rect x="1" y="1" width="958" height="100%" rx="17" fill="none" stroke="#263244"/><circle cx="28" cy="28" r="5" fill="#0ea5e9"/><circle cx="46" cy="28" r="5" fill="#38bdf8"/><circle cx="64" cy="28" r="5" fill="#7dd3fc"/><text x="88" y="34" class="text label">~/stack</text><line x1="20" y1="52" x2="940" y2="52" stroke="#263244" stroke-width="1"/><text x="38" y="93" class="text label accent">Linguagens</text><rect x="38" y="109" width="116" height="32" rx="8" fill="#172033" stroke="#263244"/><g transform="translate(46.0000 116.0000) scale(0.750000)" fill="#7dd3fc"><path d="M1.125 0C.502 0 0 .502 0 1.125v21.75C0 23.498.502 24 1.125 24h21.75c.623 0 1.125-.502 1.125-1.125V1.125C24 .502 23.498 0 22.875 0zm17.363 9.75c.612 0 1.154.037 1.627.111a6.38 6.38 0 0 1 1.306.34v2.458a3.95 3.95 0 0 0-.643-.361 5.093 5.093 0 0 0-.717-.26 5.453 5.453 0 0 0-1.426-.2c-.3 0-.573.028-.819.086a2.1 2.1 0 0 0-.623.242c-.17.104-.3.229-.393.374a.888.888 0 0 0-.14.49c0 .196.053.373.156.529.104.156.252.304.443.444s.423.276.696.41c.273.135.582.274.926.416.47.197.892.407 1.266.628.374.222.695.473.963.753.268.279.472.598.614.957.142.359.214.776.214 1.253 0 .657-.125 1.21-.373 1.656a3.033 3.033 0 0 1-1.012 1.085 4.38 4.38 0 0 1-1.487.596c-.566.12-1.163.18-1.79.18a9.916 9.916 0 0 1-1.84-.164 5.544 5.544 0 0 1-1.512-.493v-2.63a5.033 5.033 0 0 0 3.237 1.2c.333 0 .624-.03.872-.09.249-.06.456-.144.623-.25.166-.108.29-.234.373-.38a1.023 1.023 0 0 0-.074-1.089 2.12 2.12 0 0 0-.537-.5 5.597 5.597 0 0 0-.807-.444 27.72 27.72 0 0 0-1.007-.436c-.918-.383-1.602-.852-2.053-1.405-.45-.553-.676-1.222-.676-2.005 0-.614.123-1.141.369-1.582.246-.441.58-.804 1.004-1.089a4.494 4.494 0 0 1 1.47-.629 7.536 7.536 0 0 1 1.77-.201zm-15.113.188h9.563v2.166H9.506v9.646H6.789v-9.646H3.375z"/></g><text x="72" y="130" class="text small">TypeScript</text><rect x="162" y="109" width="116" height="32" rx="8" fill="#172033" stroke="#263244"/><g transform="translate(170.0000 116.0000) scale(0.750000)" fill="#7dd3fc"><path d="M0 0h24v24H0V0zm22.034 18.276c-.175-1.095-.888-2.015-3.003-2.873-.736-.345-1.554-.585-1.797-1.14-.091-.33-.105-.51-.046-.705.15-.646.915-.84 1.515-.66.39.12.75.42.976.9 1.034-.676 1.034-.676 1.755-1.125-.27-.42-.404-.601-.586-.78-.63-.705-1.469-1.065-2.834-1.034l-.705.089c-.676.165-1.32.525-1.71 1.005-1.14 1.291-.811 3.541.569 4.471 1.365 1.02 3.361 1.244 3.616 2.205.24 1.17-.87 1.545-1.966 1.41-.811-.18-1.26-.586-1.755-1.336l-1.83 1.051c.21.48.45.689.81 1.109 1.74 1.756 6.09 1.666 6.871-1.004.029-.09.24-.705.074-1.65l.046.067zm-8.983-7.245h-2.248c0 1.938-.009 3.864-.009 5.805 0 1.232.063 2.363-.138 2.711-.33.689-1.18.601-1.566.48-.396-.196-.597-.466-.83-.855-.063-.105-.11-.196-.127-.196l-1.825 1.125c.305.63.75 1.172 1.324 1.517.855.51 2.004.675 3.207.405.783-.226 1.458-.691 1.811-1.411.51-.93.402-2.07.397-3.346.012-2.054 0-4.109 0-6.179l.004-.056z"/></g><text x="196" y="130" class="text small">JavaScript</text><rect x="286" y="109" width="60" height="32" rx="8" fill="#172033" stroke="#263244"/><g transform="translate(294.0000 116.0000) scale(0.750000)" fill="#7dd3fc"><path d="M1.811 10.231c-.047 0-.058-.023-.035-.059l.246-.315c.023-.035.081-.058.128-.058h4.172c.046 0 .058.035.035.07l-.199.303c-.023.036-.082.07-.117.07zM.047 11.306c-.047 0-.059-.023-.035-.058l.245-.316c.023-.035.082-.058.129-.058h5.328c.047 0 .07.035.058.07l-.093.28c-.012.047-.058.07-.105.07zm2.828 1.075c-.047 0-.059-.035-.035-.07l.163-.292c.023-.035.07-.07.117-.07h2.337c.047 0 .07.035.07.082l-.023.28c0 .047-.047.082-.082.082zm12.129-2.36c-.736.187-1.239.327-1.963.514-.176.046-.187.058-.34-.117-.174-.199-.303-.327-.548-.444-.737-.362-1.45-.257-2.115.175-.795.514-1.204 1.274-1.192 2.22.011.935.654 1.706 1.577 1.835.795.105 1.46-.175 1.987-.77.105-.13.198-.27.315-.434H10.47c-.245 0-.304-.152-.222-.35.152-.362.432-.97.596-1.274a.315.315 0 01.292-.187h4.253c-.023.316-.023.631-.07.947a4.983 4.983 0 01-.958 2.29c-.841 1.11-1.94 1.8-3.33 1.986-1.145.152-2.209-.07-3.143-.77-.865-.655-1.356-1.52-1.484-2.595-.152-1.274.222-2.419.993-3.424.83-1.086 1.928-1.776 3.272-2.02 1.098-.2 2.15-.07 3.096.571.62.41 1.063.97 1.356 1.648.07.105.023.164-.117.2m3.868 6.461c-1.064-.024-2.034-.328-2.852-1.029a3.665 3.665 0 01-1.262-2.255c-.21-1.32.152-2.489.947-3.529.853-1.122 1.881-1.706 3.272-1.95 1.192-.21 2.314-.095 3.33.595.923.63 1.496 1.484 1.648 2.605.198 1.578-.257 2.863-1.344 3.962-.771.783-1.718 1.273-2.805 1.495-.315.06-.63.07-.934.106zm2.78-4.72c-.011-.153-.011-.27-.034-.387-.21-1.157-1.274-1.81-2.384-1.554-1.087.245-1.788.935-2.045 2.033-.21.912.234 1.835 1.075 2.21.643.28 1.285.244 1.905-.07.923-.48 1.425-1.228 1.484-2.233z"/></g><text x="320" y="130" class="text small">Go</text><rect x="354" y="109" width="67" height="32" rx="8" fill="#172033" stroke="#263244"/><g transform="translate(362.0000 116.0000) scale(0.750000)" fill="#7dd3fc"><path d="M.38 10.377l-.272-.037c-.048.344-.082.695-.101 1.041l.275.016c.018-.34.051-.682.098-1.02zM4.136 3.289l-.184-.205c-.258.232-.509.48-.746.734l.202.188c.231-.248.476-.49.728-.717zM5.769 2.059l-.146-.235c-.296.186-.586.385-.863.594l.166.219c.27-.203.554-.399.843-.578zM1.824 18.369c.185.297.384.586.593.863l.22-.164c-.205-.271-.399-.555-.58-.844l-.233.145zM1.127 16.402l-.255.104c.129.318.274.635.431.943l.005.01.245-.125-.005-.01c-.153-.301-.295-.611-.421-.922zM.298 9.309l.269.063c.076-.332.168-.664.272-.986l-.261-.087c-.108.332-.202.672-.28 1.01zM.274 12.42l-.275.01c.012.348.04.699.083 1.043l.273-.033c-.042-.336-.069-.68-.081-1.02zM.256 14.506c.073.34.162.682.264 1.014l.263-.08c-.1-.326-.187-.658-.258-.99l-.269.056zM11.573.275L11.563 0c-.348.012-.699.039-1.044.082l.034.273c.338-.041.68-.068 1.02-.08zM23.221 8.566c.1.326.186.66.256.992l.27-.059c-.072-.34-.16-.682-.262-1.014l-.264.081zM17.621 1.389c-.309-.164-.627-.314-.947-.449l-.107.252c.314.133.625.281.926.439l.128-.242zM15.693.572c-.332-.105-.67-.199-1.01-.277l-.063.268c.332.076.664.168.988.273l.085-.264zM6.674 1.545c.298-.15.606-.291.916-.418L7.486.873c-.317.127-.632.272-.937.428l-.015.008.125.244.015-.008zM23.727 11.588l.275-.01a11.797 11.797 0 0 0-.082-1.045l-.273.033c.041.338.068.682.08 1.022zM13.654.105c-.346-.047-.696-.08-1.043-.098l-.014.273c.339.018.683.051 1.019.098l.038-.273zM9.544.527l-.058-.27c-.34.072-.681.16-1.014.264l.081.262c.325-.099.659-.185.991-.256zM1.921 5.469l.231.15c.185-.285.384-.566.592-.834l-.217-.17c-.213.276-.417.563-.606.854zM.943 7.318l.253.107c.132-.313.28-.625.439-.924l-.243-.128c-.163.307-.314.625-.449.945zM18.223 21.943l.145.234c.295-.186.586-.385.863-.594l-.164-.219c-.272.204-.557.4-.844.579zM21.248 19.219l.217.17c.215-.273.418-.561.607-.854l-.23-.148c-.186.285-.385.564-.594.832zM19.855 20.715l.184.203c.258-.23.51-.479.746-.732l-.201-.188c-.23.248-.477.488-.729.717zM22.359 17.504l.244.129c.162-.307.314-.625.449-.945l-.254-.107a11.27 11.27 0 0 1-.439.923zM23.617 13.629l.273.039c.049-.346.082-.695.102-1.043l-.275-.014c-.018.338-.051.682-.1 1.018zM23.156 15.621l.264.086c.107-.332.201-.67.279-1.01l-.268-.063c-.077.333-.169.665-.275.987zM22.453 6.672c.154.303.297.617.424.932l.256-.104c-.131-.322-.277-.643-.436-.953l-.244.125zM8.296 23.418c.331.107.67.201 1.009.279l.062-.268c-.331-.076-.663-.168-.986-.273l-.085.262zM10.335 23.889c.345.049.696.082 1.043.102l.014-.275c-.339-.018-.682-.051-1.019-.098l-.038.271zM17.326 22.449c-.303.154-.613.297-.926.424l.104.256c.318-.131.639-.275.947-.434l.004-.002-.123-.246-.006.002zM4.613 21.467c.274.213.562.418.854.605l.149-.23c-.285-.184-.565-.385-.833-.592l-.17.217zM12.417 23.725l.009.275c.348-.014.699-.041 1.045-.084l-.035-.271c-.336.041-.68.068-1.019.08zM6.37 22.604c.307.162.625.314.946.449l.107-.254c-.313-.133-.624-.279-.924-.439l-.129.244zM3.083 20.041c.233.258.48.51.734.746l.188-.201c-.249-.23-.49-.477-.717-.729l-.205.184zM14.445 23.475l.059.27c.34-.074.68-.162 1.014-.266l-.082-.262c-.325.099-.659.185-.991.258zM21.18.129A2.689 2.689 0 1 0 21.18 5.507 2.689 2.689 0 1 0 21.18.129zM15.324 15.447c0 .471.314.66.852.66.67 0 1.297-.396 1.297-1.016v-.645c-.23.107-.379.141-1.107.24-.735.109-1.042.306-1.042.761zM12 2.818c-5.07 0-9.18 4.109-9.18 9.18 0 5.068 4.11 9.18 9.18 9.18 5.07 0 9.18-4.111 9.18-9.18 0-5.07-4.11-9.18-9.18-9.18zm-2.487 13.77H5.771v-6.023h.769v5.346h2.974v.677zm4.13 0h-.619v-.67c-.405.57-.811.793-1.446.793-.843 0-1.38-.463-1.38-1.182v-3.271h.686v3c0 .52.347.85.893.85.719 0 1.181-.578 1.181-1.461v-2.389h.686v4.33zm-.53-8.393c0-1.484 1.205-2.689 2.689-2.689s2.688 1.205 2.688 2.689-1.203 2.688-2.688 2.688-2.689-1.203-2.689-2.688zm5.567 7.856v.52c-.223.059-.33.074-.471.074-.34 0-.637-.238-.711-.57-.381.406-.918.637-1.471.637-.877 0-1.422-.463-1.422-1.248 0-.527.256-.916.76-1.123.266-.107.414-.141 1.389-.264.545-.066.719-.191.719-.48v-.182c0-.412-.348-.645-.967-.645-.645 0-.957.24-1.016.77h-.693c.041-1 .686-1.404 1.734-1.404 1.066 0 1.627.412 1.627 1.182v2.412c0 .215.133.338.373.338.041-.002.074-.002.149-.017z"/></g><text x="388" y="130" class="text small">Lua</text><rect x="38" y="151" width="81" height="32" rx="8" fill="#172033" stroke="#263244"/><g transform="translate(46.0000 158.0000) scale(0.750000)" fill="#7dd3fc"><path d="M21.038,4.9l-7.577-4.498C13.009,0.134,12.505,0,12,0c-0.505,0-1.009,0.134-1.462,0.403L2.961,4.9 C2.057,5.437,1.5,6.429,1.5,7.503v8.995c0,1.073,0.557,2.066,1.462,2.603l7.577,4.497C10.991,23.866,11.495,24,12,24 c0.505,0,1.009-0.134,1.461-0.402l7.577-4.497c0.904-0.537,1.462-1.529,1.462-2.603V7.503C22.5,6.429,21.943,5.437,21.038,4.9z M15.17,18.946l0.013,0.646c0.001,0.078-0.05,0.167-0.111,0.198l-0.383,0.22c-0.061,0.031-0.111-0.007-0.112-0.085L14.57,19.29 c-0.328,0.136-0.66,0.169-0.872,0.084c-0.04-0.016-0.057-0.075-0.041-0.142l0.139-0.584c0.011-0.046,0.036-0.092,0.069-0.121 c0.012-0.011,0.024-0.02,0.036-0.026c0.022-0.011,0.043-0.014,0.062-0.006c0.229,0.077,0.521,0.041,0.802-0.101 c0.357-0.181,0.596-0.545,0.592-0.907c-0.003-0.328-0.181-0.465-0.613-0.468c-0.55,0.001-1.064-0.107-1.072-0.917 c-0.007-0.667,0.34-1.361,0.889-1.8l-0.007-0.652c-0.001-0.08,0.048-0.168,0.111-0.2l0.37-0.236 c0.061-0.031,0.111,0.007,0.112,0.087l0.006,0.653c0.273-0.109,0.511-0.138,0.726-0.088c0.047,0.012,0.067,0.076,0.048,0.151 l-0.144,0.578c-0.011,0.044-0.036,0.088-0.065,0.116c-0.012,0.012-0.025,0.021-0.038,0.028c-0.019,0.01-0.038,0.013-0.057,0.009 c-0.098-0.022-0.332-0.073-0.699,0.113c-0.385,0.195-0.52,0.53-0.517,0.778c0.003,0.297,0.155,0.387,0.681,0.396 c0.7,0.012,1.003,0.318,1.01,1.023C16.105,17.747,15.736,18.491,15.17,18.946z M19.143,17.859c0,0.06-0.008,0.116-0.058,0.145 l-1.916,1.164c-0.05,0.029-0.09,0.004-0.09-0.056v-0.494c0-0.06,0.037-0.093,0.087-0.122l1.887-1.129 c0.05-0.029,0.09-0.004,0.09,0.056V17.859z M20.459,6.797l-7.168,4.427c-0.894,0.523-1.553,1.109-1.553,2.187v8.833 c0,0.645,0.26,1.063,0.66,1.184c-0.131,0.023-0.264,0.039-0.398,0.039c-0.42,0-0.833-0.114-1.197-0.33L3.226,18.64 c-0.741-0.44-1.201-1.261-1.201-2.142V7.503c0-0.881,0.46-1.702,1.201-2.142l7.577-4.498c0.363-0.216,0.777-0.33,1.197-0.33 c0.419,0,0.833,0.114,1.197,0.33l7.577,4.498c0.624,0.371,1.046,1.013,1.164,1.732C21.686,6.557,21.12,6.411,20.459,6.797z"/></g><text x="72" y="172" class="text small">Shell</text><rect x="127" y="151" width="81" height="32" rx="8" fill="#172033" stroke="#263244"/><g transform="translate(135.0000 158.0000) scale(0.750000)" fill="#7dd3fc"><path d="M1.5 0h21l-1.91 21.563L11.977 24l-8.564-2.438L1.5 0zm7.031 9.75l-.232-2.718 10.059.003.23-2.622L5.412 4.41l.698 8.01h9.126l-.326 3.426-2.91.804-2.955-.81-.188-2.11H6.248l.33 4.171L12 19.351l5.379-1.443.744-8.157H8.531z"/></g><text x="161" y="172" class="text small">HTML5</text><rect x="216" y="151" width="74" height="32" rx="8" fill="#172033" stroke="#263244"/><g transform="translate(224.0000 158.0000) scale(0.140625)" fill="#7dd3fc"><path d="M8.76 1l10.055 112.883 45.118 12.58 45.244-12.626L119.24 1H8.76zm89.591 25.862l-3.347 37.605.01.203-.014.467v-.004l-2.378 26.294-.262 2.336L64 101.607v.001l-.022.019-28.311-7.888L33.75 72h13.883l.985 11.054 15.386 4.17-.004.008v-.002l15.443-4.229L81.075 65H48.792l-.277-3.043-.631-7.129L47.553 51h34.749l1.264-14H30.64l-.277-3.041-.63-7.131L29.401 23h69.281l-.331 3.862z"/></g><text x="250" y="172" class="text small">CSS3</text><text x="38" y="237" class="text label accent">Backend</text><rect x="38" y="253" width="95" height="32" rx="8" fill="#172033" stroke="#263244"/><g transform="translate(46.0000 260.0000) scale(0.750000)" fill="#7dd3fc"><path d="M11.998,24c-0.321,0-0.641-0.084-0.922-0.247l-2.936-1.737c-0.438-0.245-0.224-0.332-0.08-0.383 c0.585-0.203,0.703-0.25,1.328-0.604c0.065-0.037,0.151-0.023,0.218,0.017l2.256,1.339c0.082,0.045,0.197,0.045,0.272,0l8.795-5.076 c0.082-0.047,0.134-0.141,0.134-0.238V6.921c0-0.099-0.053-0.192-0.137-0.242l-8.791-5.072c-0.081-0.047-0.189-0.047-0.271,0 L3.075,6.68C2.99,6.729,2.936,6.825,2.936,6.921v10.15c0,0.097,0.054,0.189,0.139,0.235l2.409,1.392 c1.307,0.654,2.108-0.116,2.108-0.89V7.787c0-0.142,0.114-0.253,0.256-0.253h1.115c0.139,0,0.255,0.112,0.255,0.253v10.021 c0,1.745-0.95,2.745-2.604,2.745c-0.508,0-0.909,0-2.026-0.551L2.28,18.675c-0.57-0.329-0.922-0.945-0.922-1.604V6.921 c0-0.659,0.353-1.275,0.922-1.603l8.795-5.082c0.557-0.315,1.296-0.315,1.848,0l8.794,5.082c0.57,0.329,0.924,0.944,0.924,1.603 v10.15c0,0.659-0.354,1.273-0.924,1.604l-8.794,5.078C12.643,23.916,12.324,24,11.998,24z M19.099,13.993 c0-1.9-1.284-2.406-3.987-2.763c-2.731-0.361-3.009-0.548-3.009-1.187c0-0.528,0.235-1.233,2.258-1.233 c1.807,0,2.473,0.389,2.747,1.607c0.024,0.115,0.129,0.199,0.247,0.199h1.141c0.071,0,0.138-0.031,0.186-0.081 c0.048-0.054,0.074-0.123,0.067-0.196c-0.177-2.098-1.571-3.076-4.388-3.076c-2.508,0-4.004,1.058-4.004,2.833 c0,1.925,1.488,2.457,3.895,2.695c2.88,0.282,3.103,0.703,3.103,1.269c0,0.983-0.789,1.402-2.642,1.402 c-2.327,0-2.839-0.584-3.011-1.742c-0.02-0.124-0.126-0.215-0.253-0.215h-1.137c-0.141,0-0.254,0.112-0.254,0.253 c0,1.482,0.806,3.248,4.655,3.248C17.501,17.007,19.099,15.91,19.099,13.993z"/></g><text x="72" y="274" class="text small">Node.js</text><rect x="141" y="253" width="95" height="32" rx="8" fill="#172033" stroke="#263244"/><g transform="translate(149.0000 260.0000) scale(0.750000)" fill="#7dd3fc"><path d="M24 18.588a1.529 1.529 0 01-1.895-.72l-3.45-4.771-.5-.667-4.003 5.444a1.466 1.466 0 01-1.802.708l5.158-6.92-4.798-6.251a1.595 1.595 0 011.9.666l3.576 4.83 3.596-4.81a1.435 1.435 0 011.788-.668L21.708 7.9l-2.522 3.283a.666.666 0 000 .994l4.804 6.412zM.002 11.576l.42-2.075c1.154-4.103 5.858-5.81 9.094-3.27 1.895 1.489 2.368 3.597 2.275 5.973H1.116C.943 16.447 4.005 19.009 7.92 17.7a4.078 4.078 0 002.582-2.876c.207-.666.548-.78 1.174-.588a5.417 5.417 0 01-2.589 3.957 6.272 6.272 0 01-7.306-.933 6.575 6.575 0 01-1.64-3.858c0-.235-.08-.455-.134-.666A88.33 88.33 0 010 11.577zm1.127-.286h9.654c-.06-3.076-2.001-5.258-4.59-5.278-2.882-.04-4.944 2.094-5.071 5.264z"/></g><text x="175" y="274" class="text small">Express</text><rect x="244" y="253" width="95" height="32" rx="8" fill="#172033" stroke="#263244"/><g transform="translate(252.0000 260.0000) scale(0.750000)" fill="#7dd3fc"><path d="M23.245 6.49L24 4.533l-.031-.121-7.473 1.967c.797-1.153.523-2.078.523-2.078s-2.387 1.524-4.193 1.485c-1.804-.04-2.387-.52-5.155.362-2.768.882-3.551 3.59-4.351 4.173-.804.583-3.32 2.477-3.32 2.477l.006.034 2.27-.724s-.622.585-1.945 2.37l-.062-.057.002.011s1.064 1.626 2.107 1.324a2.14 2.14 0 0 0 .353-.147c.419.234.967.463 1.572.525 0 0-.41-.475-.752-1.017l.238-.154.865.318-.096-.812c.003-.003.006-.003.008-.006l.849.311-.105-.738a5.65 5.65 0 0 1 .322-.158l.885-3.345 3.662-2.497-.291.733c-.741 1.826-2.135 2.256-2.135 2.256l-.582.22c-.433.512-.614.637-.764 2.353.348-.088.682-.107.984-.028 1.564.421 2.107 2.307 1.685 2.827-.104.13-.356.354-.673.617H7.77l-.008.514-.065.051h-.645l-.009.504-.17.127c-.607.011-1.373-.518-1.373-.518 0 .481.401 1.225.401 1.225l.07-.034-.061.045s1.625 1.083 2.646.681c.91-.356 3.263-2.213 5.296-3.093l6.15-1.62.811-2.1-4.688 1.235v-1.889l5.5-1.448.811-2.1-6.31 1.662V8.367zm-11.163 4l1.459-.384.02.074-.455 1.179-1.513.398zm.503 2.526l-1.512.398.489-1.266 1.459-.385.02.074zm1.971-.424l-1.513.398.49-1.266 1.459-.385.02.073Z"/></g><text x="278" y="274" class="text small">Fastify</text><rect x="347" y="253" width="67" height="32" rx="8" fill="#172033" stroke="#263244"/><g transform="translate(355.0000 260.0000) scale(0.750000)" fill="#7dd3fc"><path d="M11.836 23.977c-2.0587-.1046-3.3698-.3594-4.468-.8684-.131-.0606-.1153-.0272-.278-.596-.2755-.9627-.5534-2.128-.7848-3.29-.135-.678-.1535-.7614-.4716-2.1176-.5104-2.1762-.6402-2.831-.804-4.0557-.1064-.7962.1223-1.3156.2754-.6255.6026 2.7148 1.124 4.6969 1.6753 6.3684.1901.5764.1752.5525.3347.537.1095-.0105.1097-.0096.0278.1811-.1118.2604-.0573.3991.2913.7409.2612.256.2638.2712.0407.2387-.174-.0254-.1655-.0434-.1023.2138.0295.1199.0809.3448.1141.4997.2644 1.2314.6094 1.8336 1.1121 1.941 1.4684.3139 3.6012.4502 5.4794.3503 2.1817-.116 2.7037-.1989 3.3812-.5368.4582-.2286.8528-.6569.611-.6632-.1781-.0047-.1948-.0464-.0437-.109.329-.1365.468-.2818.4411-.4612-.008-.0535.0021-.1094.0422-.2318.1232-.3762.1439-.6822.1123-1.664-.0146-.4543-.0136-.487.021-.6574.0912-.449.132-.7886.199-1.6564.0474-.6126.0627-.766.1118-1.1186.0491-.3532.0648-.5537.0929-1.1868.0549-1.2385.116-1.7317.2287-1.8443.1884-.1885.1874-.289-.006-.5633-.2205-.3129-.2198-.4765.003-.711.1085-.1142.1132-.242.0391-1.0652-.019-.2114-.0394-.5284-.0452-.7045-.0073-.217-.0169-.3202-.0297-.3202-.041 0-.306.2264-.8894.76-.6635.6068-.8368.75-1.2089.9984-.7674.5123-1.5042.7633-2.7787.9462-1.2864.1847-2.8008.1411-3.7922-.1092-.6681-.1686-1.055-.3507-1.8085-.8512-.7058-.4688-.6674-1.2277.079-1.5624.3362-.1507.076-.3149-.5986-.3778-.5074-.0474-.2495-.1461.3996-.153.7887-.0083 1.349-.2884 2.0736-1.0363.3034-.3131.374-.3746.7782-.677.6428-.4808.8696-.6895.972-.8947.0776-.155.0733-.3082-.0094-.3397-.0271-.0103-.0404-.029-.0404-.0566 0-.0517.1571-.0442-2.5615-.122-2.8682-.0822-5.0395-.2118-6.1476-.367-.2164-.0304-.1133.1615.1509.2806.0836.0377.0914.0714.0198.0852-.1952.0377-.1844.01-.1284.3283.2173 1.235.5548 1.5418 1.2152 1.1047.1309-.0866.1765-.1027.4961-.1753.7-.1589 1.4556-.2464 2.5838-.2993 1.1633-.0545 1.2892-.0588 1.3032-.0448.0305.0304-.5599.1101-1.5935.215-1.07.1086-1.4287.1577-1.926.2638-.1342.0286-.2802.0521-.3245.0522-.2895.0008-.7114.2931-.8644.5988-.1926.3851-.0152.6153.5107.6627.1761.0159.6063.0923.6826.1213.0658.025.0525.0663-.0337.1044-.0932.0413-.093.039-.0085.0922.1688.1066.0969.0998-.37-.0351-.7785-.225-.9368-.2379-.723-.0588.1015.085.0972.1096-.0132.076-.1712-.0519-.1676-.0865-.0636.6052.1332.8858.031.8419-.1545-.0665-.2554-1.25-.6686-2.3144-.484-1.2466.04.2318.0853.4146.2197.888.1811.638.2872 1.2493.2237 1.2885-.0297.0184-.1904-.4844-.3028-.947-.124-.5102-.1767-.8005-.4328-2.3821-.1298-.802-.2425-1.3464-.378-1.8265-.0773-.2736-.0497-.403.128-.6008.3644-.4052 1.2746-.6528 1.2746-.3466 0 .147-.187.2458-.6436.3402-.5204.1076-.5632.1751-.2897.4578.2486.2569 1.8142.4808 3.7254.5327.3663.01.9119.0259 1.2124.0354 2.1339.0674 4.3877.0663 4.5184-.0022.015-.0079.0837-.105.1527-.2158.2825-.454.552-.795.9445-1.1954.2782-.2838.2865-.2942.2417-.3055-.132-.033-.1427-.5621-.0127-.6282.2383-.121.3542-.2918.7283-1.0725.198-.4133.3093-.5955.4777-.7825.1457-.1618.2569-.385.421-.8452.1614-.4524.2639-.6635.3799-.7823.223-.2285.2324-.103.0363.4903-.162.49-.7111 1.686-1.1268 2.4542-.355.656-.307.8451.1881.7427.0883-.0182.1706-.024.2462-.017.1306.0119.2723-.0174.6213-.1284.2892-.092.3264-.0769.201.0818-.0891.1128-.0887.1142.053.1799.1405.065.1301.0783-.0611.0783-.265 0-.4498.1059-.4766.2732-.0118.074-.0118.074-.1226-.0473-.3058-.335-.6452-.2808-.851.136-.072.1458-.1856.2528-.2684.2528-.0513 0-.0393-.0339.082-.232.293-.4784.2985-.5618.028-.4245-.308.1563-.7837.8261-.803 1.1308-.017.2655.2956.4083.5327.2434.9017-.627 1.348-.8748.9794-.5438-.0765.0687-.159.148-.1832.1762-.1744.2028-.3106.2933-.5656.3757-.8493.2745-.8493.6558 0 .6355.2265-.0055.4225-.0022.4774.0079.412.0756 2.2334-.2378 3.1616-.544.5878-.1938.6844-.4293.3229-.7867-.4647-.4592-.959-.3684-.6466.1189.1936.302-.3882.6232-1.3705.7565-.4425.06-.6113.0898-.7738.1363-.1108.0318-.4379.0719-.704.0863-.3523.019-.4642-.0274-.1925-.08.4158-.0804.5822-.105 1.0783-.1598 1.3303-.1468 1.7592-.3548 1.7627-.8548.0019-.2777-.2227-.3198-.8506-.1598-.201.0513-.2093.0324-.0248-.0564.2821-.1358.2599-.2519-.0717-.374-.1107-.0408-.1107-.0408.0516-.0538.7422-.0595 1.1048-.3546.7593-.6182-.0677-.0516-.0657-.0685.01-.0837.029-.0058.086-.0344.1266-.0635.1634-.1174.2997.246.1556.4144-.198.2313-.0359.5312.357.6602.403.1323.5887-.0506.4222-.4158-.03-.0657-.089-.2578-.131-.4269-.2398-.9631-.7595-2.0407-.9843-2.0407-.0216 0-.036-.0196-.0475-.064-.2147-.8343-.2878-.9893-.5348-1.1333-.4195-.2445-.551-.6687-.1636-.5275.8873.3236 1.8223 1.4494 2.5325 3.0495.5654 1.274.6932 3.168.3239 4.8039-.203.8994-.363 2.6656-.5462 6.0301-.0749 1.3745-.1492 2.3884-.2385 3.2532-.0223.216-.0453.4696-.051.5635-.0438.708-.2035 2.0275-.3607 2.98-.033.1995-.0473.3696-.0585.6915-.0422 1.2204-.4315 1.8227-1.2581 1.9468a2.7189 2.7189 0 0 0-.325.075c-1.0801.3317-2.166.471-4.3425.557-.728.0288-.7087.0288-1.3064-.0016zm.2615-.2356c.0474-.0474-.2411-.0896-.8847-.1297-.1644-.0102-.3527-.026-.4184-.0352-.4177-.058-1.1698-.1029-1.1698-.0699 0 .1276 2.3564.3514 2.473.2348zm-4.0952-.8634c0-.0406-.3364-1.3698-.4044-1.5977-.1252-.42-.3766-1.0159-.4231-1.003-.0697.0192.0988.9043.2754 1.447.1744.5358.5521 1.3252.5521 1.1537zm-.5246-.1305c.0433-.2745-.0418-.6732-.3351-1.5704-.176-.5382-.2341-.7414-.276-.9641-.0441-.2356-.0402-.2248-.0799-.2188-.1655.0246-.151.285.054.9752.1484.4996.1654.5673.1879.7506.064.5203.4057 1.3021.449 1.0275zm-.7904-3.2816c-.0001-.3436-.0485-.6234-.2044-1.1826-.1744-.6253-.2435-.896-.2825-1.1058-.0745-.4017-.2292-.621-.1807-.2564.026.1948.215 1.1792.2665 1.3878.0233.094.0618.3268.0857.5174.0662.5282.1018.6734.197.8049.0977.1347.1185.1055.1184-.1653zm5.7823-8.2201c.047-.0521.0384-.1659-.0348-.4592-.1-.3999-.0996-.5862.0013-.7401.1707-.2607-.8164-.3768-1.398-.1645-.53.1934-.648.5174-.3192.877.1613.1766-.0747.272-.2973.1203-.3041-.2074-.2766-.8612.0363-.8612.0362 0 .106-.073.106-.111 0-.0561-.0674-.1035-.211-.148-.1984-.0617-.1974-.0741.0085-.108.4832-.0793.939-.4219 1.6589-1.2467.935-1.0714 1.3075-1.3927.8116-.7002-.2504.3497-.4599.592-.8783 1.016-.7501.7603-.8434.9222-.5313.9222.472 0 .6826-.1937 1.1142-1.0246.4076-.7848.6084-.9866.8963-.901.1217.0362.121.0386-.2186.8754-.314.7736-.2997.986.0543.8106.1767-.0875.17-.0762.2403-.4093.173-.8206.5299-1.9468.617-1.9468.1153 0 .0463.5054-.1424 1.0417-.2842.8081-.298 1.0686-.0684 1.2959.2501.2476.5305.202.7474-.1216.0793-.1184.1145-.1023.1763.0809.046.1363.0536.1408.244.1434.2617.0037.6195-.091.6392-.169.0064-.0254.0206-.0402.035-.0364.1408.0369.1388-.1065-.0025-.1673-.0918-.0395-.0998-.0645-.032-.0992.1499-.0764.3061.038.3061.2243 0 .0784.0186.0885.205.11 1.2175.1412 1.9496-.176 2.364-1.024.0706-.1445.205-.4086.299-.587.3348-.6367.4726-1.1026.4121-1.3938-.0352-.1699-.0169-.164-.3792-.12-1.8582.2256-3.5292.3794-4.933.454-.2677.0141-.5553.0298-.639.0348-.1525.009-.1525.009-.4526.3035-.4846.4754-.9042.8606-1.7005 1.5606-.2254.1982-.4329.3853-.461.4158-.0804.0868-.3442.2954-.7344.5806-.815.5957-1.2381 1.0543-1.0973 1.189.1613.1545 1.371.3751 2.378.4339.1692.0099.4035.029.521.0426.3097.036.319.0367.4797.0397.1296.0024.1506-.0015.1793-.0333zm4.9335-2.6883c-.6352-.103-1.2474-.4616-1.8828-1.103-.419-.4228-.3704-.4557.2256-.1524.4367.2222.5944.2777.7778.2734.0704-.0017.1626-.0037.2049-.0045.1903-.0038.9252.4017.8551.4718-.024.024-.159-.0192-.4196-.1342-.8347-.3685-1.3685-.3711-.8026-.0041.5953.3862 1.2494.571 1.64.4632.146-.0402.186-.0393.1923.0044.0242.1694-.3493.257-.7907.1854zm-3.5168 2.6903c.0746-.0187.3623-.0728.6394-.1204 1.31-.2247 1.6092-.3389 2.4225-.9243.552-.3972.6191-.7887.1254-.731-.5517.0644-.6125.1133-.7745.6229-.1885.5932-.272.665-.7748.6656-.5271.0006-.7398-.181-.889-.7596-.0528-.2045-.067-.2222-.2166-.2715-.5559-.1833-.8321.1858-.8322 1.112 0 .1586-.0097.1672-.1927.1722-.2981.0081-.3303-.091-.1542-.4747.2334-.509.2423-.6089.0614-.6855-.392-.1659-.7831.2546-.7091.7622.0663.4551.3933.6953.8023.5892.116-.0301.116-.0301.2182.0226.123.0634.1069.0622.274.0203zm1.822-.7768c.2327-.0208.3877-.1848.3877-.4102 0-.3258-.2825-.4682-.6292-.317-.1015.0442-.1223.0476-.2064.034-.3571-.0575-.5023.2388-.2548.52.1594.1812.2799.2108.7026.1732zm-3.2106-.9502c.373-.1904.8327-1.1638.6843-1.4494-.0437-.0844-.0598-.0769-.158.0736-.048.0734-.1677.2402-.266.3708-.458.6076-.5777.8672-.4559.989.0617.0617.0998.0648.1956.016zM10.302 21.2613c-.1018-.013-.4553-.0772-.7855-.1426-.6434-.1273-.9326-.1714-1.1234-.1714-.1763 0-.2162-.0341-.1669-.1425.0536-.1175.2172-.105.7572.0579.3561.1074.6022.167.7437.1803.061.0057.1494.021.1964.0338.1346.037 1.2056.1779 1.3516.1779.0044 0 .0033.0077-.0025.017-.0158.0257-.751.0177-.9706-.0104zm1.7587-.7484c-.2231-.1093-.2921-.2537-.3514-.7354-.0621-.5045-.1591-.66-.4529-.7263a4.0909 4.0909 0 0 1-.1152-.0274c-.0404-.011-.0716-.173-.0565-.2939.034-.2724.2048-.4916.7172-.9203.1127-.0943.2348-.2026.2713-.2405.3605-.3747 1.5306.1053 1.9894.816.3258.5047.322.6185-.028.8492-.4315.2844-.4933.3657-.4846.6372.003.0892.0065.2044.008.2561.0095.3235-.1771.4074-.6452.29-.3964-.0994-.5232-.0838-.6829.0842-.0597.0628-.0632.063-.1692.0111zm1.1381-.2254c.31-.1586.3749-.5512.1474-.892-.244-.3652-.5598-.2393-.5485.2187.0139.5637.1544.7995.4011.6733zm-.8657-.0823c.245-.1105.326-.537.1665-.8751-.1556-.3297-.4463-.1355-.5016.335a3.7214 3.7214 0 0 1-.033.2215c-.0671.345.062.4567.3681.3186zm-.5397-1.1367c.2714-.1816.542-.19 1.3747-.043.4775.0845.8627.0285.8621-.1253-.0023-.5725-.3483-.7422-1.2293-.603-.5545.0876-.7589.0879-1.0083.0016-.2747-.095-.6015.1652-.5532.4404.045.2565.3721.451.554.3293zm-2.0236-.8882c-1.242-.2611-2.0297-1.7477-1.3788-2.6022.1995-.2618.2624-.1704.1232.1789-.5807 1.4577 1.2303 2.8224 2.6353 1.9858 1.027-.6115 1.0144-2.1067-.0221-2.619a3.1056 3.1056 0 0 1-.1964-.1114c-.4015-.247-.8534-.2309-1.7165.0612-.504.1705-.4886.1706-.3296-.0011.6047-.6532 1.8983-.6335 2.6865.041 1.4324 1.2255.1142 3.4695-1.8016 3.0668zm5.0377-.1125c-1.9591-.3-2.6203-2.1867-1.1535-3.2915 1.3107-.9873 3.3222-.0095 3.2577 1.5836-.0398.9811-1.1207 1.8585-2.1042 1.708zm.4013-.3203c1.5031-.02 2.0059-1.9306.735-2.7936-.7982-.5421-2.0927-.295-2.5552.4876-.542.9171.0474 2.1467 1.1115 2.3185.0282.0045.1473.0043.2647-.0006.1174-.005.3172-.0103.444-.012zm-1.504-.8356c-.4402-.1245-.5095-.6544-.1381-1.0566.3355-.3633.817-.2062 1.0182.3322.0892.2387.058.2748-.2225.2581-.1793-.0106-.2639.0025-.2635.041 0 .0067.0603.0566.134.1109.2197.162.2247.2153.0267.2836-.144.0497-.4316.0657-.5548.0308zm-4.6535.1072c-.4663-.0444-.6306-.2972-.4418-.6793.224-.453.732-.5855 1.0146-.2645.4276.4858.1102 1.0088-.5728.9438zM5.2609 4.894c-.0061-.01.0088-.0465.0331-.0811.0243-.0347.0641-.0913.0885-.1258.0243-.0345.0483-.0939.0534-.132.0058-.043.0197-.0722.037-.0775.0706-.0214.6893-.1486.9498-.1953.6694-.12.851-.132 2.3652-.156 2.81-.0445 3.8851-.08 4.9246-.1626.3576-.0284.3387-.0321.4233.0843.1331.1833.0163.311-.3377.3693-.4252.0699-2.1378.0258-2.5939-.0668-.4837-.0983-.636-.0931-.7755.0264-.0812.0694-.0633.0696-.2775-.0018-.27-.09-.507-.1186-.8766-.106-.3002.0103-.417.0236-1.1357.129-.1925.0283-.4615.0599-.5976.0701-.4723.0356-1.013.1356-1.7562.325-.4978.1267-.507.1285-.5242.1008Zm11.997-1.2081c0-.0854.1102-.209.595-.6678.2691-.2547.4638-.4815.4638-.5401 0-.0556.0477-.0598.0665-.006.1044.2996-.1068.597-.6983.9833a31.133 31.133 0 0 0-.3207.2115c-.0847.0578-.1062.0617-.1062.019z"/></g><text x="381" y="274" class="text small">Gin</text><rect x="38" y="295" width="109" height="32" rx="8" fill="#172033" stroke="#263244"/><g transform="translate(46.0000 302.0000) scale(0.750000)" fill="#7dd3fc"><path d="M11.9362.0137a12.1694 12.1694 0 00-2.9748.378C4.2816 1.5547.5678 5.7944.0918 10.6012c-.59 4.5488 1.7079 9.2856 5.6437 11.6345 3.8608 2.4179 9.0926 2.3199 12.8734-.223 3.3969-2.206 5.5118-6.2277 5.3858-10.2845-.058-4.0159-2.31-7.9167-5.7588-9.9796C16.354.5876 14.1431.0047 11.9362.0137zm-.063 1.696c4.9448-.007 9.7886 3.8137 10.2815 8.9245.945 5.6597-3.7528 11.4125-9.4875 11.5795-5.4538.544-10.7245-4.0798-10.8795-9.5566-.407-4.4338 2.5159-8.8346 6.6977-10.2995a9.1126 9.1126 0 013.3878-.647zm5.0908 3.2248c-2.6869 2.0849-5.2598 4.3078-7.8886 6.4567 1.2029.017 2.4118.016 3.6208.01 1.41-2.165 2.8589-4.3008 4.2678-6.4667zm-5.6647 7.6536c-1.41 2.166-2.86 4.3088-4.2699 6.4737 2.693-2.0799 5.2548-4.3198 7.9017-6.4557a255.4132 255.4132 0 00-3.6318-.018z"/></g><text x="72" y="316" class="text small">WebSocket</text><text x="38" y="381" class="text label accent">Testes</text><rect x="38" y="397" width="74" height="32" rx="8" fill="#172033" stroke="#263244"/><g transform="translate(46.0000 404.0000) scale(0.750000)" fill="#7dd3fc"><path d="M22.251 11.82a3.117 3.117 0 0 0-2.328-3.01L22.911 0H8.104L11.1 8.838a3.116 3.116 0 0 0-2.244 2.988c0 1.043.52 1.967 1.313 2.536a8.279 8.279 0 0 1-1.084 1.244 8.14 8.14 0 0 1-2.55 1.647c-.834-.563-1.195-1.556-.869-2.446a3.11 3.11 0 0 0-.91-6.08 3.117 3.117 0 0 0-3.113 3.113c0 .848.347 1.626.903 2.182-.048.097-.097.195-.146.299-.465.959-.993 2.043-1.195 3.259-.403 2.432.257 4.384 1.849 5.489A5.093 5.093 0 0 0 5.999 24c1.827 0 3.682-.917 5.475-1.807 1.279-.632 2.599-1.292 3.898-1.612.48-.118.98-.187 1.508-.264 1.07-.153 2.175-.312 3.168-.89a4.482 4.482 0 0 0 2.182-3.091c.174-.994 0-1.994-.444-2.87.298-.48.465-1.042.465-1.647zm-1.355 0c0 .965-.785 1.75-1.75 1.75a1.753 1.753 0 0 1-1.085-3.126l.007-.007c.056-.042.118-.084.18-.125 0 0 .008 0 .008-.007.028-.014.055-.035.083-.05.007 0 .014-.006.021-.006.028-.014.063-.028.097-.042.035-.014.07-.027.098-.041.007 0 .013-.007.02-.007.028-.007.056-.021.084-.028.007 0 .02-.007.028-.007.034-.007.062-.014.097-.02h.007l.104-.022c.007 0 .02 0 .028-.007.028 0 .055-.007.083-.007h.035c.035 0 .07-.007.111-.007h.09c.028 0 .05 0 .077.007h.014c.055.007.111.014.167.028a1.766 1.766 0 0 1 1.396 1.723zM10.043 1.39h10.93l-2.509 7.4c-.104.02-.208.055-.312.09l-2.64-5.385-2.648 5.35c-.104-.034-.216-.055-.327-.076l-2.494-7.38zm4.968 9.825a3.083 3.083 0 0 0-.938-1.668l1.438-2.904 1.452 2.967c-.43.43-.743.98-.868 1.605H15.01zm-3.481-1.098c.034-.007.062-.014.097-.02h.02c.029-.008.056-.008.084-.015h.028c.028 0 .049-.007.076-.007h.271c.028 0 .049.007.07.007.014 0 .02 0 .035.007.027.007.048.007.076.014.007 0 .014 0 .028.007l.097.02h.007c.028.008.056.015.083.029.007 0 .014.007.028.007.021.007.049.014.07.027.007 0 .014.007.02.007.028.014.056.021.084.035h.007a.374.374 0 0 1 .09.049h.007c.028.014.056.034.084.048.007 0 .007.007.013.007.028.014.05.035.077.049l.007.007c.083.062.16.132.236.201l.007.007a1.747 1.747 0 0 1 .48 1.209 1.752 1.752 0 0 1-3.502 0 1.742 1.742 0 0 1 1.32-1.695zm-6.838-.049c.966 0 1.751.786 1.751 1.751s-.785 1.751-1.75 1.751-1.752-.785-1.752-1.75.786-1.752 1.751-1.752zm16.163 6.025a3.07 3.07 0 0 1-1.508 2.133c-.758.438-1.689.577-2.669.716a17.29 17.29 0 0 0-1.64.291c-1.445.355-2.834 1.05-4.182 1.717-1.724.854-3.35 1.66-4.857 1.66a3.645 3.645 0 0 1-2.154-.688c-1.529-1.056-1.453-3.036-1.272-4.12.167-1.015.632-1.966 1.077-2.877.028-.055.049-.104.077-.16.152.056.312.098.479.126-.264 1.473.486 2.994 1.946 3.745l.264.139.284-.104c1.216-.431 2.342-1.133 3.336-2.071a9.334 9.334 0 0 0 1.445-1.716c.16.027.32.034.48.034a3.117 3.117 0 0 0 3.008-2.327h1.167a3.109 3.109 0 0 0 3.01 2.327c.576 0 1.11-.16 1.57-.43.18.52.236 1.063.139 1.605z"/></g><text x="72" y="418" class="text small">Jest</text><rect x="120" y="397" width="81" height="32" rx="8" fill="#172033" stroke="#263244"/><g transform="translate(128.0000 404.0000) scale(0.140625)" fill="#7dd3fc"><path d="M66.646 0 58.65.523C33.773 2.147 11.433 19.62 3.189 43.903-.843 55.78-.77 74.446 3.349 85.279l1.03 2.709 2.834-3.986c2.249-3.161 3.334-3.857 5.282-3.384l5.282 1.284c2.58.629 2.768.465 2.139-1.866-5.313-19.631-1.574-35.418 11.476-48.467 7.717-7.721 15.626-11.727 26.455-13.412 7.288-1.133 8.03-1.5 10.758-5.294l2.932-4.079-2.448-4.391Zm6.185 1.265c-.451.011-.764.086-.908.23-.316.317.242 2.283 1.242 4.376 1.787 3.751 1.776 3.86-.965 7.452l-2.779 3.646 6.902 1.866c13.27 3.595 24.053 12.76 30.569 25.998 2.79 5.668 3.42 8.361 3.798 16.243.246 5.199-.09 11.597-.75 14.22-1.065 4.22-.929 5.328 1.164 9.638l2.365 4.868 4.833-.7c2.662-.387 4.959-.797 5.104-.918.144-.117 1.223-3.97 2.395-8.56 3.802-14.865 2.145-29.747-4.936-44.25-5.384-11.02-17.275-22.83-28.225-28.037-6.698-3.185-16.653-6.153-19.81-6.072ZM46.343 36.44l-8.865 8.916-8.869 8.912 2.19 4.286c1.202 2.361 8.947 12.5 17.215 22.535C56.278 91.121 63.37 99.308 63.776 99.28c1.047-.078 29.32-35.886 32.22-40.808l2.405-4.083-8.927-8.975-8.924-8.974zM12.604 83.779c-1.584-.044-2.196.65-3.685 2.467-3.158 3.853-3.099 5.782.34 11.242 9.354 14.862 21.927 24.284 38.037 28.508 9.387 2.46 23.58 2.686 32.18.508 14.65-3.709 29.437-13.846 37.155-25.471 5.984-9.017 5.98-9.19-.105-8.467l-5.212.617-1.975-4.388c-1.09-2.412-2.33-4.388-2.756-4.388-.426 0-1.398 1.507-2.159 3.346-.761 1.843-3.903 5.926-6.983 9.076-14.15 14.494-36.124 18.218-54.158 9.177-5.84-2.928-15.54-11.621-18.734-16.785-1.644-2.659-3.252-3.64-7.643-4.65-2.051-.474-3.351-.766-4.302-.792Z"/></g><text x="154" y="418" class="text small">RSpec</text><rect x="209" y="397" width="116" height="32" rx="8" fill="#172033" stroke="#263244"/><g transform="translate(217.0000 404.0000) scale(0.140625)" fill="#7dd3fc"><path d="m72.086 86.132-.594-.144c-13.125-3.844-15.15-14.311-15.15-14.311l18.182 5.082L84.15 39.77l-.116-.031c-11.807-3.162-19.64-8.692-22.744-11.292-4.4-3.685-6.335-6.246-8.24-2.372-1.682 3.417-3.836 8.977-5.92 16.762-4.516 16.857-7.892 52.429 20.027 59.914l.572.129zm-18.807-30.85s4.4-6.843 11.862-4.722c7.467 2.121 8.045 10.376 8.045 10.376zm-8.517 23.451L31.787 82.41s1.41-8.029 10.968-11.212l-7.347-27.573-.635.193c-9.111 2.457-16.476 1.805-19.55 1.273-4.357-.751-6.636-1.708-6.422 1.606.186 2.923.882 7.454 2.477 13.44 3.45 12.961 14.854 37.937 36.405 32.132l.635-.199-3.555-13.337ZM19.548 60.315l15.316-4.035s-.446 5.892-6.188 7.405c-5.743 1.512-9.128-3.371-9.128-3.371zm89.824-18.979c-3.981.698-13.532 1.567-25.336-1.596-11.807-3.162-19.64-8.692-22.744-11.292-4.4-3.685-6.335-6.246-8.24-2.372-1.684 3.417-3.837 8.977-5.921 16.762-4.516 16.857-7.892 52.429 20.027 59.914 27.912 7.479 42.772-25.017 47.289-41.875 2.084-7.783 2.998-13.676 3.25-17.476.287-4.305-2.67-3.055-8.324-2.064zM53.28 55.282s4.4-6.843 11.862-4.722c7.467 2.121 8.045 10.376 8.045 10.376zm18.215 30.706c-13.125-3.845-15.15-14.311-15.15-14.311l35.259 9.858c0-.002-7.117 8.25-20.109 4.453zm12.466-21.51s4.394-6.838 11.854-4.711c7.46 2.124 8.048 10.379 8.048 10.379zM51.732 83.935v-7.179l-19.945 5.656s1.474-8.563 11.876-11.514c3.155-.894 5.846-.888 8.069-.459V40.995h9.987c-1.087-3.36-2.139-5.947-3.023-7.744-1.461-2.975-2.96-1.003-6.361 1.842-2.396 2.001-8.45 6.271-17.561 8.726-9.111 2.457-16.476 1.805-19.55 1.273-4.357-.752-6.636-1.708-6.422 1.605.186 2.923.882 7.455 2.477 13.44 3.45 12.962 14.854 37.937 36.405 32.132 5.629-1.517 9.603-4.515 12.357-8.336h-8.309Zm-32.185-23.62 15.316-4.035s-.446 5.892-6.188 7.405c-5.743 1.512-9.128-3.371-9.128-3.371z"/></g><text x="243" y="418" class="text small">Playwright</text><text x="500" y="93" class="text label accent">Frontend &amp; Mobile</text><rect x="500" y="109" width="81" height="32" rx="8" fill="#172033" stroke="#263244"/><g transform="translate(508.0000 116.0000) scale(0.750000)" fill="#7dd3fc"><path d="M14.23 12.004a2.236 2.236 0 0 1-2.235 2.236 2.236 2.236 0 0 1-2.236-2.236 2.236 2.236 0 0 1 2.235-2.236 2.236 2.236 0 0 1 2.236 2.236zm2.648-10.69c-1.346 0-3.107.96-4.888 2.622-1.78-1.653-3.542-2.602-4.887-2.602-.41 0-.783.093-1.106.278-1.375.793-1.683 3.264-.973 6.365C1.98 8.917 0 10.42 0 12.004c0 1.59 1.99 3.097 5.043 4.03-.704 3.113-.39 5.588.988 6.38.32.187.69.275 1.102.275 1.345 0 3.107-.96 4.888-2.624 1.78 1.654 3.542 2.603 4.887 2.603.41 0 .783-.09 1.106-.275 1.374-.792 1.683-3.263.973-6.365C22.02 15.096 24 13.59 24 12.004c0-1.59-1.99-3.097-5.043-4.032.704-3.11.39-5.587-.988-6.38-.318-.184-.688-.277-1.092-.278zm-.005 1.09v.006c.225 0 .406.044.558.127.666.382.955 1.835.73 3.704-.054.46-.142.945-.25 1.44-.96-.236-2.006-.417-3.107-.534-.66-.905-1.345-1.727-2.035-2.447 1.592-1.48 3.087-2.292 4.105-2.295zm-9.77.02c1.012 0 2.514.808 4.11 2.28-.686.72-1.37 1.537-2.02 2.442-1.107.117-2.154.298-3.113.538-.112-.49-.195-.964-.254-1.42-.23-1.868.054-3.32.714-3.707.19-.09.4-.127.563-.132zm4.882 3.05c.455.468.91.992 1.36 1.564-.44-.02-.89-.034-1.345-.034-.46 0-.915.01-1.36.034.44-.572.895-1.096 1.345-1.565zM12 8.1c.74 0 1.477.034 2.202.093.406.582.802 1.203 1.183 1.86.372.64.71 1.29 1.018 1.946-.308.655-.646 1.31-1.013 1.95-.38.66-.773 1.288-1.18 1.87-.728.063-1.466.098-2.21.098-.74 0-1.477-.035-2.202-.093-.406-.582-.802-1.204-1.183-1.86-.372-.64-.71-1.29-1.018-1.946.303-.657.646-1.313 1.013-1.954.38-.66.773-1.286 1.18-1.868.728-.064 1.466-.098 2.21-.098zm-3.635.254c-.24.377-.48.763-.704 1.16-.225.39-.435.782-.635 1.174-.265-.656-.49-1.31-.676-1.947.64-.15 1.315-.283 2.015-.386zm7.26 0c.695.103 1.365.23 2.006.387-.18.632-.405 1.282-.66 1.933-.2-.39-.41-.783-.64-1.174-.225-.392-.465-.774-.705-1.146zm3.063.675c.484.15.944.317 1.375.498 1.732.74 2.852 1.708 2.852 2.476-.005.768-1.125 1.74-2.857 2.475-.42.18-.88.342-1.355.493-.28-.958-.646-1.956-1.1-2.98.45-1.017.81-2.01 1.085-2.964zm-13.395.004c.278.96.645 1.957 1.1 2.98-.45 1.017-.812 2.01-1.086 2.964-.484-.15-.944-.318-1.37-.5-1.732-.737-2.852-1.706-2.852-2.474 0-.768 1.12-1.742 2.852-2.476.42-.18.88-.342 1.356-.494zm11.678 4.28c.265.657.49 1.312.676 1.948-.64.157-1.316.29-2.016.39.24-.375.48-.762.705-1.158.225-.39.435-.788.636-1.18zm-9.945.02c.2.392.41.783.64 1.175.23.39.465.772.705 1.143-.695-.102-1.365-.23-2.006-.386.18-.63.406-1.282.66-1.933zM17.92 16.32c.112.493.2.968.254 1.423.23 1.868-.054 3.32-.714 3.708-.147.09-.338.128-.563.128-1.012 0-2.514-.807-4.11-2.28.686-.72 1.37-1.536 2.02-2.44 1.107-.118 2.154-.3 3.113-.54zm-11.83.01c.96.234 2.006.415 3.107.532.66.905 1.345 1.727 2.035 2.446-1.595 1.483-3.092 2.295-4.11 2.295-.22-.005-.406-.05-.553-.132-.666-.38-.955-1.834-.73-3.703.054-.46.142-.944.25-1.438zm4.56.64c.44.02.89.034 1.345.034.46 0 .915-.01 1.36-.034-.44.572-.895 1.095-1.345 1.565-.455-.47-.91-.993-1.36-1.565z"/></g><text x="534" y="130" class="text small">React</text><rect x="589" y="109" width="95" height="32" rx="8" fill="#172033" stroke="#263244"/><g transform="translate(597.0000 116.0000) scale(0.750000)" fill="#7dd3fc"><path d="M18.665 21.978C16.758 23.255 14.465 24 12 24 5.377 24 0 18.623 0 12S5.377 0 12 0s12 5.377 12 12c0 3.583-1.574 6.801-4.067 9.001L9.219 7.2H7.2v9.596h1.615V9.251l9.85 12.727Zm-3.332-8.533 1.6 2.061V7.2h-1.6v6.245Z"/></g><text x="623" y="130" class="text small">Next.js</text><rect x="692" y="109" width="130" height="32" rx="8" fill="#172033" stroke="#263244"/><g transform="translate(700.0000 116.0000) scale(0.140625)" fill="#7dd3fc"><path d="M37.965 6.934c-2.12.072-4.14.588-5.965 1.64-3.648 2.106-5.826 5.97-6.805 10.543-.978 4.574-.875 10.013.1 16.1.376 2.347.926 4.815 1.562 7.338-2.503.71-4.916 1.47-7.136 2.318-5.76 2.2-10.52 4.83-13.992 7.965C2.256 55.972 0 59.788 0 64c0 4.212 2.256 8.03 5.729 11.164C9.2 78.3 13.96 80.93 19.72 83.13c2.22.848 4.633 1.606 7.136 2.317-.636 2.523-1.186 4.991-1.562 7.337-.975 6.09-1.076 11.527-.098 16.1.98 4.575 3.155 8.438 6.803 10.544s8.08 2.06 12.531.62c4.45-1.44 9.11-4.247 13.895-8.136 1.844-1.498 3.707-3.206 5.575-5.02 1.866 1.814 3.73 3.522 5.574 5.02 4.784 3.89 9.442 6.697 13.893 8.137 4.45 1.44 8.885 1.485 12.533-.62 3.648-2.107 5.826-5.97 6.805-10.544.978-4.574.873-10.012-.102-16.1-.376-2.347-.924-4.815-1.56-7.338 2.503-.71 4.916-1.47 7.136-2.317 5.76-2.199 10.52-4.83 13.992-7.965C125.744 72.03 128 68.212 128 64s-2.256-8.028-5.729-11.162c-3.472-3.134-8.232-5.766-13.992-7.965-2.22-.847-4.631-1.608-7.134-2.318.636-2.523 1.184-4.992 1.56-7.338.975-6.087 1.076-11.526.098-16.1-.978-4.575-3.154-8.437-6.803-10.543-3.648-2.105-8.08-2.06-12.531-.62-4.45 1.44-9.11 4.248-13.895 8.136-1.844 1.5-3.71 3.208-5.577 5.022-1.867-1.813-3.73-3.523-5.574-5.022-4.783-3.888-9.439-6.698-13.889-8.138-2.226-.72-4.448-1.09-6.57-1.02zm.256 5.545c1.33-.038 2.854.207 4.6.77 3.49 1.13 7.675 3.57 12.093 7.16 1.702 1.382 3.443 2.982 5.197 4.69-3.664 3.96-7.298 8.463-10.814 13.434-6.063.56-11.78 1.456-17.043 2.65-.6-2.374-1.116-4.68-1.463-6.847-.9-5.62-.92-10.465-.152-14.053.767-3.587 2.202-5.767 4.144-6.888.971-.56 2.108-.88 3.438-.916zm51.559 0c1.33.037 2.467.355 3.438.916 1.942 1.12 3.377 3.3 4.144 6.887.768 3.587.75 8.433-.15 14.054-.347 2.165-.862 4.474-1.463 6.846-5.262-1.193-10.98-2.09-17.045-2.649-3.516-4.97-7.152-9.474-10.816-13.435 1.754-1.707 3.497-3.308 5.199-4.69 4.418-3.592 8.603-6.028 12.094-7.158 1.745-.564 3.27-.808 4.6-.77zM64 29.102a123.445 123.445 0 0 1 7.44 8.926c-2.444-.11-4.917-.184-7.44-.184-2.522 0-4.995.073-7.44.184A123.44 123.44 0 0 1 64 29.102zm0 14.308c3.985 0 7.87.157 11.634.44a154.962 154.962 0 0 1 6.199 9.853A154.967 154.967 0 0 1 87.267 64a155.063 155.063 0 0 1-5.434 10.295 155.064 155.064 0 0 1-6.2 9.856c-3.763.283-7.648.441-11.632.441a155.301 155.301 0 0 1-11.638-.44 155.034 155.034 0 0 1-6.197-9.857 154.937 154.937 0 0 1-5.434-10.293 155.031 155.031 0 0 1 5.436-10.297 155.107 155.107 0 0 1 6.2-9.855 155.16 155.16 0 0 1 11.633-.44zm-18.773 1.163a164.291 164.291 0 0 0-3.88 6.35 164.27 164.27 0 0 0-3.56 6.534 123.471 123.471 0 0 1-4.012-10.906c3.59-.8 7.412-1.47 11.452-1.978zm37.547 0a123.501 123.501 0 0 1 11.452 1.978 123.463 123.463 0 0 1-4.012 10.908 164.214 164.214 0 0 0-3.56-6.537 164.291 164.291 0 0 0-3.88-6.35zm-54.409 3.341c1.598 5.154 3.681 10.554 6.23 16.084-2.55 5.532-4.63 10.934-6.23 16.088-2.355-.665-4.61-1.374-6.66-2.156-5.319-2.03-9.524-4.438-12.248-6.898-2.723-2.458-3.893-4.79-3.893-7.033 0-2.242 1.17-4.572 3.893-7.03 2.724-2.46 6.93-4.867 12.248-6.897 2.05-.783 4.305-1.493 6.66-2.159zm71.27 0c2.356.666 4.612 1.376 6.66 2.16 5.32 2.03 9.525 4.436 12.249 6.895 2.723 2.46 3.893 4.79 3.893 7.031 0 2.243-1.17 4.575-3.893 7.033-2.724 2.46-6.93 4.866-12.248 6.897-2.05.782-4.307 1.49-6.662 2.156-1.598-5.153-3.68-10.553-6.227-16.084 2.549-5.532 4.63-10.933 6.229-16.088zM64 52.592A11.41 11.41 0 0 0 52.592 64a11.41 11.41 0 0 0 11.409 11.408A11.41 11.41 0 0 0 75.409 64 11.41 11.41 0 0 0 64 52.592Zm26.214 17.951a123.521 123.521 0 0 1 4.01 10.908c-3.588.8-7.41 1.471-11.448 1.98a164.295 164.295 0 0 0 3.877-6.353 164.27 164.27 0 0 0 3.56-6.535zm-52.427.002a164.17 164.17 0 0 0 3.56 6.533 165.81 165.81 0 0 0 3.88 6.352 123.431 123.431 0 0 1-11.452-1.979 123.474 123.474 0 0 1 4.012-10.906zM32.252 86.82c5.262 1.192 10.98 2.087 17.045 2.646 3.516 4.973 7.152 9.477 10.816 13.44-1.754 1.705-3.495 3.305-5.197 4.69-4.418 3.59-8.607 6.03-12.098 7.16-3.49 1.128-6.095.973-8.037-.148-1.942-1.122-3.375-3.3-4.142-6.887-.768-3.588-.749-8.433.152-14.056.347-2.165.86-4.473 1.461-6.845zm63.495 0c.6 2.372 1.116 4.68 1.463 6.845.9 5.623.92 10.468.152 14.056-.767 3.588-2.202 5.767-4.144 6.89-1.942 1.12-4.546 1.273-8.037.143-3.491-1.13-7.676-3.57-12.094-7.16-1.701-1.383-3.444-2.983-5.197-4.69 3.664-3.96 7.298-8.466 10.814-13.438 6.063-.559 11.78-1.454 17.043-2.646zM56.56 89.972a164.301 164.301 0 0 0 7.441.186 164.301 164.301 0 0 0 7.442-.186 123.436 123.436 0 0 1-7.442 8.93 123.432 123.432 0 0 1-7.44-8.93z"/></g><text x="726" y="130" class="text small">React Native</text><rect x="830" y="109" width="74" height="32" rx="8" fill="#172033" stroke="#263244"/><g transform="translate(838.0000 116.0000) scale(0.750000)" fill="#7dd3fc"><path d="M0 20.084c.043.53.23 1.063.718 1.778.58.849 1.576 1.315 2.303.567.49-.505 5.794-9.776 8.35-13.29a.761.761 0 011.248 0c2.556 3.514 7.86 12.785 8.35 13.29.727.748 1.723.282 2.303-.567.57-.835.728-1.42.728-2.046 0-.426-8.26-15.798-9.092-17.078-.8-1.23-1.044-1.498-2.397-1.542h-1.032c-1.353.044-1.597.311-2.398 1.542C8.267 3.991.33 18.758 0 19.77Z"/></g><text x="864" y="130" class="text small">Expo</text><rect x="500" y="151" width="74" height="32" rx="8" fill="#172033" stroke="#263244"/><g transform="translate(508.0000 158.0000) scale(0.750000)" fill="#7dd3fc"><path d="M13.056 23.238a.57.57 0 0 1-1.02-.355v-5.202c0-.63-.512-1.143-1.144-1.143H5.148a.57.57 0 0 1-.464-.903l3.777-5.29c.54-.753 0-1.804-.93-1.804H.57a.574.574 0 0 1-.543-.746.6.6 0 0 1 .08-.157L5.008.78a.57.57 0 0 1 .467-.24h14.589a.57.57 0 0 1 .466.903l-3.778 5.29c-.54.755 0 1.806.93 1.806h5.745c.238 0 .424.138.513.322a.56.56 0 0 1-.063.603z"/></g><text x="534" y="172" class="text small">Vite</text><rect x="582" y="151" width="123" height="32" rx="8" fill="#172033" stroke="#263244"/><g transform="translate(590.0000 158.0000) scale(0.750000)" fill="#7dd3fc"><path d="M12.001,4.8c-3.2,0-5.2,1.6-6,4.8c1.2-1.6,2.6-2.2,4.2-1.8c0.913,0.228,1.565,0.89,2.288,1.624 C13.666,10.618,15.027,12,18.001,12c3.2,0,5.2-1.6,6-4.8c-1.2,1.6-2.6,2.2-4.2,1.8c-0.913-0.228-1.565-0.89-2.288-1.624 C16.337,6.182,14.976,4.8,12.001,4.8z M6.001,12c-3.2,0-5.2,1.6-6,4.8c1.2-1.6,2.6-2.2,4.2-1.8c0.913,0.228,1.565,0.89,2.288,1.624 c1.177,1.194,2.538,2.576,5.512,2.576c3.2,0,5.2-1.6,6-4.8c-1.2,1.6-2.6,2.2-4.2,1.8c-0.913-0.228-1.565-0.89-2.288-1.624 C10.337,13.382,8.976,12,6.001,12z"/></g><text x="616" y="172" class="text small">TailwindCSS</text><rect x="713" y="151" width="102" height="32" rx="8" fill="#172033" stroke="#263244"/><g transform="translate(721.0000 158.0000) scale(0.750000)" fill="#7dd3fc"><path d="M12.0111 0c-.85 0-1.5392.6891-1.5392 1.5392 0 .8501.6891 1.5393 1.5392 1.5393.595 0 1.11-.338 1.3662-.832 2.2208 1.2675 3.847 5.4728 3.847 10.3623 0 2.0715-.2891 4.056-.825 5.7685a.3215.3215 0 0 0 .2107.403.322.322 0 0 0 .4033-.2111c.5558-1.7763.8542-3.8251.8542-5.9604 0-5.1927-1.7717-9.686-4.3206-11.0027.001-.0223.0035-.0443.0035-.0669 0-.85-.6891-1.5392-1.5393-1.5392zm0 .6432a.896.896 0 1 1 0 1.792.896.896 0 1 1 0-1.792zm-5.486 4.3052c-2.067.0074-3.6473.6646-4.3885 1.9485-.7375 1.2774-.5267 2.971.5113 4.7813a.3217.3217 0 0 0 .558-.32C2.271 9.7274 2.089 8.266 2.6938 7.2185c.821-1.422 3.033-1.9552 5.9321-1.4271a.3216.3216 0 0 0 .1153-.6329c-.784-.1428-1.5271-.2125-2.216-.21zm11.0522.0176a.3216.3216 0 0 0-.0084.6432c1.8337.0239 3.1556.5956 3.7502 1.6256.8192 1.419.1798 3.5947-1.7182 5.837a.322.322 0 0 0 .0377.4535.3215.3215 0 0 0 .4532-.0377c2.0535-2.426 2.7708-4.8661 1.7845-6.5744-.7257-1.257-2.26-1.9207-4.299-1.9472zm-2.6984.2924a.3225.3225 0 0 0-.0647.0072c-1.8568.3979-3.8333 1.1755-5.7314 2.2714-4.5699 2.6384-7.5924 6.4948-7.3601 9.3717-.4726.2628-.7928.7664-.7928 1.3455 0 .85.6892 1.5392 1.5393 1.5392.85 0 1.5392-.6891 1.5392-1.5392 0-.8501-.6891-1.5393-1.5392-1.5393-.038 0-.0754.003-.1128.0057-.1002-2.5597 2.7434-6.1412 7.048-8.6265 1.8413-1.063 3.7551-1.8163 5.5445-2.1997a.3217.3217 0 0 0-.07-.636zm-2.8787 6.2364a1.1192 1.1192 0 0 0-.2243.0255c-.6012.1301-.983.7225-.8533 1.3238.1302.6012.7226.9832 1.3238.8533.6012-.1302.9832-.7226.8533-1.3238-.1139-.526-.5816-.8844-1.0995-.8788zM4.532 13.341a.321.321 0 0 0-.2318.0835.3214.3214 0 0 0-.0214.4542c1.2682 1.3936 2.9157 2.701 4.7946 3.7857 4.4146 2.5489 9.1056 3.2849 11.5608 1.8392a1.53 1.53 0 0 0 .8966.2899c.8501 0 1.5392-.6891 1.5392-1.5392 0-.8501-.689-1.5393-1.5392-1.5393-.85 0-1.5392.6892-1.5392 1.5393 0 .276.0737.5344.201.7584-2.2448 1.214-6.631.5002-10.7976-1.9054-1.8228-1.0524-3.418-2.3181-4.6404-3.6614a.3206.3206 0 0 0-.2226-.1049zm-2.0628 4.0172a.896.896 0 1 1 0 1.792.896.896 0 1 1 0-1.792zm19.0616 0a.896.896 0 1 1 0 1.792.891.891 0 0 1-.5864-.2194c-.0025-.004-.0039-.0083-.0066-.0123a.3195.3195 0 0 0-.0957-.0914.896.896 0 0 1 .6887-1.4689zm-14.0045 1.368a.3215.3215 0 0 0-.3207.4296C8.2793 22.154 10.036 24 12.0111 24c1.4406 0 2.7735-.9822 3.8128-2.711a.3215.3215 0 0 0-.11-.4413.3219.3219 0 0 0-.4415.11c-.934 1.5537-2.0812 2.399-3.2613 2.399-1.6407 0-3.2075-1.6465-4.2-4.4179a.3216.3216 0 0 0-.2848-.2126z"/></g><text x="747" y="172" class="text small">Electron</text><text x="500" y="269" class="text label accent">Banco de Dados &amp; ORM</text><rect x="500" y="285" width="116" height="32" rx="8" fill="#172033" stroke="#263244"/><g transform="translate(508.0000 292.0000) scale(0.750000)" fill="#7dd3fc"><path d="M23.5594 14.7228a.5269.5269 0 0 0-.0563-.1191c-.139-.2632-.4768-.3418-1.0074-.2321-1.6533.3411-2.2935.1312-2.5256-.0191 1.342-2.0482 2.445-4.522 3.0411-6.8297.2714-1.0507.7982-3.5237.1222-4.7316a1.5641 1.5641 0 0 0-.1509-.235C21.6931.9086 19.8007.0248 17.5099.0005c-1.4947-.0158-2.7705.3461-3.1161.4794a9.449 9.449 0 0 0-.5159-.0816 8.044 8.044 0 0 0-1.3114-.1278c-1.1822-.0184-2.2038.2642-3.0498.8406-.8573-.3211-4.7888-1.645-7.2219.0788C.9359 2.1526.3086 3.8733.4302 6.3043c.0409.818.5069 3.334 1.2423 5.7436.4598 1.5065.9387 2.7019 1.4334 3.582.553.9942 1.1259 1.5933 1.7143 1.7895.4474.1491 1.1327.1441 1.8581-.7279.8012-.9635 1.5903-1.8258 1.9446-2.2069.4351.2355.9064.3625 1.39.3772a.0569.0569 0 0 0 .0004.0041 11.0312 11.0312 0 0 0-.2472.3054c-.3389.4302-.4094.5197-1.5002.7443-.3102.064-1.1344.2339-1.1464.8115-.0025.1224.0329.2309.0919.3268.2269.4231.9216.6097 1.015.6331 1.3345.3335 2.5044.092 3.3714-.6787-.017 2.231.0775 4.4174.3454 5.0874.2212.5529.7618 1.9045 2.4692 1.9043.2505 0 .5263-.0291.8296-.0941 1.7819-.3821 2.5557-1.1696 2.855-2.9059.1503-.8707.4016-2.8753.5388-4.1012.0169-.0703.0357-.1207.057-.1362.0007-.0005.0697-.0471.4272.0307a.3673.3673 0 0 0 .0443.0068l.2539.0223.0149.001c.8468.0384 1.9114-.1426 2.5312-.4308.6438-.2988 1.8057-1.0323 1.5951-1.6698zM2.371 11.8765c-.7435-2.4358-1.1779-4.8851-1.2123-5.5719-.1086-2.1714.4171-3.6829 1.5623-4.4927 1.8367-1.2986 4.8398-.5408 6.108-.13-.0032.0032-.0066.0061-.0098.0094-2.0238 2.044-1.9758 5.536-1.9708 5.7495-.0002.0823.0066.1989.0162.3593.0348.5873.0996 1.6804-.0735 2.9184-.1609 1.1504.1937 2.2764.9728 3.0892.0806.0841.1648.1631.2518.2374-.3468.3714-1.1004 1.1926-1.9025 2.1576-.5677.6825-.9597.5517-1.0886.5087-.3919-.1307-.813-.5871-1.2381-1.3223-.4796-.839-.9635-2.0317-1.4155-3.5126zm6.0072 5.0871c-.1711-.0428-.3271-.1132-.4322-.1772.0889-.0394.2374-.0902.4833-.1409 1.2833-.2641 1.4815-.4506 1.9143-1.0002.0992-.126.2116-.2687.3673-.4426a.3549.3549 0 0 0 .0737-.1298c.1708-.1513.2724-.1099.4369-.0417.156.0646.3078.26.3695.4752.0291.1016.0619.2945-.0452.4444-.9043 1.2658-2.2216 1.2494-3.1676 1.0128zm2.094-3.988-.0525.141c-.133.3566-.2567.6881-.3334 1.003-.6674-.0021-1.3168-.2872-1.8105-.8024-.6279-.6551-.9131-1.5664-.7825-2.5004.1828-1.3079.1153-2.4468.079-3.0586-.005-.0857-.0095-.1607-.0122-.2199.2957-.2621 1.6659-.9962 2.6429-.7724.4459.1022.7176.4057.8305.928.5846 2.7038.0774 3.8307-.3302 4.7363-.084.1866-.1633.3629-.2311.5454zm7.3637 4.5725c-.0169.1768-.0358.376-.0618.5959l-.146.4383a.3547.3547 0 0 0-.0182.1077c-.0059.4747-.054.6489-.115.8693-.0634.2292-.1353.4891-.1794 1.0575-.11 1.4143-.8782 2.2267-2.4172 2.5565-1.5155.3251-1.7843-.4968-2.0212-1.2217a6.5824 6.5824 0 0 0-.0769-.2266c-.2154-.5858-.1911-1.4119-.1574-2.5551.0165-.5612-.0249-1.9013-.3302-2.6462.0044-.2932.0106-.5909.019-.8918a.3529.3529 0 0 0-.0153-.1126 1.4927 1.4927 0 0 0-.0439-.208c-.1226-.4283-.4213-.7866-.7797-.9351-.1424-.059-.4038-.1672-.7178-.0869.067-.276.1831-.5875.309-.9249l.0529-.142c.0595-.16.134-.3257.213-.5012.4265-.9476 1.0106-2.2453.3766-5.1772-.2374-1.0981-1.0304-1.6343-2.2324-1.5098-.7207.0746-1.3799.3654-1.7088.5321a5.6716 5.6716 0 0 0-.1958.1041c.0918-1.1064.4386-3.1741 1.7357-4.4823a4.0306 4.0306 0 0 1 .3033-.276.3532.3532 0 0 0 .1447-.0644c.7524-.5706 1.6945-.8506 2.802-.8325.4091.0067.8017.0339 1.1742.081 1.939.3544 3.2439 1.4468 4.0359 2.3827.8143.9623 1.2552 1.9315 1.4312 2.4543-1.3232-.1346-2.2234.1268-2.6797.779-.9926 1.4189.543 4.1729 1.2811 5.4964.1353.2426.2522.4522.2889.5413.2403.5825.5515.9713.7787 1.2552.0696.087.1372.1714.1885.245-.4008.1155-1.1208.3825-1.0552 1.717-.0123.1563-.0423.4469-.0834.8148-.0461.2077-.0702.4603-.0994.7662zm.8905-1.6211c-.0405-.8316.2691-.9185.5967-1.0105a2.8566 2.8566 0 0 0 .135-.0406 1.202 1.202 0 0 0 .1342.103c.5703.3765 1.5823.4213 3.0068.1344-.2016.1769-.5189.3994-.9533.6011-.4098.1903-1.0957.333-1.7473.3636-.7197.0336-1.0859-.0807-1.1721-.151zm.5695-9.2712c-.0059.3508-.0542.6692-.1054 1.0017-.055.3576-.112.7274-.1264 1.1762-.0142.4368.0404.8909.0932 1.3301.1066.887.216 1.8003-.2075 2.7014a3.5272 3.5272 0 0 1-.1876-.3856c-.0527-.1276-.1669-.3326-.3251-.6162-.6156-1.1041-2.0574-3.6896-1.3193-4.7446.3795-.5427 1.3408-.5661 2.1781-.463zm.2284 7.0137a12.3762 12.3762 0 0 0-.0853-.1074l-.0355-.0444c.7262-1.1995.5842-2.3862.4578-3.4385-.0519-.4318-.1009-.8396-.0885-1.2226.0129-.4061.0666-.7543.1185-1.0911.0639-.415.1288-.8443.1109-1.3505.0134-.0531.0188-.1158.0118-.1902-.0457-.4855-.5999-1.938-1.7294-3.253-.6076-.7073-1.4896-1.4972-2.6889-2.0395.5251-.1066 1.2328-.2035 2.0244-.1859 2.0515.0456 3.6746.8135 4.8242 2.2824a.908.908 0 0 1 .0667.1002c.7231 1.3556-.2762 6.2751-2.9867 10.5405zm-8.8166-6.1162c-.025.1794-.3089.4225-.6211.4225a.5821.5821 0 0 1-.0809-.0056c-.1873-.026-.3765-.144-.5059-.3156-.0458-.0605-.1203-.178-.1055-.2844.0055-.0401.0261-.0985.0925-.1488.1182-.0894.3518-.1226.6096-.0867.3163.0441.6426.1938.6113.4186zm7.9305-.4114c.0111.0792-.049.201-.1531.3102-.0683.0717-.212.1961-.4079.2232a.5456.5456 0 0 1-.075.0052c-.2935 0-.5414-.2344-.5607-.3717-.024-.1765.2641-.3106.5611-.352.297-.0414.6111.0088.6356.1851z"/></g><text x="534" y="306" class="text small">PostgreSQL</text><rect x="624" y="285" width="95" height="32" rx="8" fill="#172033" stroke="#263244"/><g transform="translate(632.0000 292.0000) scale(0.750000)" fill="#7dd3fc"><path d="M17.193 9.555c-1.264-5.58-4.252-7.414-4.573-8.115-.28-.394-.53-.954-.735-1.44-.036.495-.055.685-.523 1.184-.723.566-4.438 3.682-4.74 10.02-.282 5.912 4.27 9.435 4.888 9.884l.07.05A73.49 73.49 0 0111.91 24h.481c.114-1.032.284-2.056.51-3.07.417-.296.604-.463.85-.693a11.342 11.342 0 003.639-8.464c.01-.814-.103-1.662-.197-2.218zm-5.336 8.195s0-8.291.275-8.29c.213 0 .49 10.695.49 10.695-.381-.045-.765-1.76-.765-2.405z"/></g><text x="658" y="306" class="text small">MongoDB</text><rect x="727" y="285" width="81" height="32" rx="8" fill="#172033" stroke="#263244"/><g transform="translate(735.0000 292.0000) scale(0.750000)" fill="#7dd3fc"><path d="M22.71 13.145c-1.66 2.092-3.452 4.483-7.038 4.483-3.203 0-4.397-2.825-4.48-5.12.701 1.484 2.073 2.685 4.214 2.63 4.117-.133 6.94-3.852 6.94-7.239 0-4.05-3.022-6.972-8.268-6.972-3.752 0-8.4 1.428-11.455 3.685C2.59 6.937 3.885 9.958 4.35 9.626c2.648-1.904 4.748-3.13 6.784-3.744C8.12 9.244.886 17.05 0 18.425c.1 1.261 1.66 4.648 2.424 4.648.232 0 .431-.133.664-.365a100.49 100.49 0 0 0 5.54-6.765c.222 3.104 1.748 6.898 6.014 6.898 3.819 0 7.604-2.756 9.33-8.965.2-.764-.73-1.361-1.261-.73zm-4.349-5.013c0 1.959-1.926 2.922-3.685 2.922-.941 0-1.664-.247-2.235-.568 1.051-1.592 2.092-3.225 3.21-4.973 1.972.334 2.71 1.43 2.71 2.619z"/></g><text x="761" y="306" class="text small">Redis</text><rect x="816" y="285" width="88" height="32" rx="8" fill="#172033" stroke="#263244"/><g transform="translate(824.0000 292.0000) scale(0.750000)" fill="#7dd3fc"><path d="M21.678.521c-1.032-.92-2.28-.55-3.513.544a8.71 8.71 0 0 0-.547.535c-2.109 2.237-4.066 6.38-4.674 9.544.237.48.422 1.093.544 1.561a13.044 13.044 0 0 1 .164.703s-.019-.071-.096-.296l-.05-.146a1.689 1.689 0 0 0-.033-.08c-.138-.32-.518-.995-.686-1.289-.143.423-.27.818-.376 1.176.484.884.778 2.4.778 2.4s-.025-.099-.147-.442c-.107-.303-.644-1.244-.772-1.464-.217.804-.304 1.346-.226 1.478.152.256.296.698.422 1.186.286 1.1.485 2.44.485 2.44l.017.224a22.41 22.41 0 0 0 .056 2.748c.095 1.146.273 2.13.5 2.657l.155-.084c-.334-1.038-.47-2.399-.41-3.967.09-2.398.642-5.29 1.661-8.304 1.723-4.55 4.113-8.201 6.3-9.945-1.993 1.8-4.692 7.63-5.5 9.788-.904 2.416-1.545 4.684-1.931 6.857.666-2.037 2.821-2.912 2.821-2.912s1.057-1.304 2.292-3.166c-.74.169-1.955.458-2.362.629-.6.251-.762.337-.762.337s1.945-1.184 3.613-1.72C21.695 7.9 24.195 2.767 21.678.521m-18.573.543A1.842 1.842 0 0 0 1.27 2.9v16.608a1.84 1.84 0 0 0 1.835 1.834h9.418a22.953 22.953 0 0 1-.052-2.707c-.006-.062-.011-.141-.016-.2a27.01 27.01 0 0 0-.473-2.378c-.121-.47-.275-.898-.369-1.057-.116-.197-.098-.31-.097-.432 0-.12.015-.245.037-.386a9.98 9.98 0 0 1 .234-1.045l.217-.028c-.017-.035-.014-.065-.031-.097l-.041-.381a32.8 32.8 0 0 1 .382-1.194l.2-.019c-.008-.016-.01-.038-.018-.053l-.043-.316c.63-3.28 2.587-7.443 4.8-9.791.066-.069.133-.128.198-.194Z"/></g><text x="850" y="306" class="text small">SQLite</text><rect x="500" y="327" width="88" height="32" rx="8" fill="#172033" stroke="#263244"/><g transform="translate(508.0000 334.0000) scale(0.750000)" fill="#7dd3fc"><path d="M21.8068 18.2848L13.5528.7565c-.207-.4382-.639-.7273-1.1286-.7541-.5023-.0293-.9523.213-1.2062.6253L2.266 15.1271c-.2773.4518-.2718 1.0091.0158 1.4555l4.3759 6.7786c.2608.4046.7127.6388 1.1823.6388.1332 0 .267-.0188.3987-.0577l12.7019-3.7568c.3891-.1151.7072-.3904.8737-.7553s.1633-.7828-.0075-1.1454zm-1.8481.7519L9.1814 22.2242c-.3292.0975-.6448-.1873-.5756-.5194l3.8501-18.4386c.072-.3448.5486-.3996.699-.0803l7.1288 15.138c.1344.2856-.019.6224-.325.7128z"/></g><text x="534" y="348" class="text small">Prisma</text><rect x="596" y="327" width="102" height="32" rx="8" fill="#172033" stroke="#263244"/><g transform="translate(604.0000 334.0000) scale(0.750000)" fill="#7dd3fc"><path d="M19.455 8.369c-.538-.748-1.778-2.285-3.681-4.569-.826-.991-1.535-1.832-1.884-2.245a146 146 0 0 0-.488-.576l-.207-.245-.113-.133-.022-.032-.01-.005L12.57 0l-.609.488c-1.555 1.246-2.828 2.851-3.681 4.64-.523 1.064-.864 2.105-1.043 3.176-.047.241-.088.489-.121.738-.209-.017-.421-.028-.632-.033-.018-.001-.035-.002-.059-.003a7.46 7.46 0 0 0-2.28.274l-.317.089-.163.286c-.765 1.342-1.198 2.869-1.252 4.416-.07 2.01.477 3.954 1.583 5.625 1.082 1.633 2.61 2.882 4.42 3.611l.236.095.071.025.003-.001a9.59 9.59 0 0 0 2.941.568q.171.006.342.006c1.273 0 2.513-.249 3.69-.742l.008.004.313-.145a9.63 9.63 0 0 0 3.927-3.335c1.01-1.49 1.577-3.234 1.641-5.042.075-2.161-.643-4.304-2.133-6.371m-7.083 6.695c.328 1.244.264 2.44-.191 3.558-1.135-1.12-1.967-2.352-2.475-3.665-.543-1.404-.87-2.74-.974-3.975.48.157.922.366 1.315.622 1.132.737 1.914 1.902 2.325 3.461zm.207 6.022c.482.368.99.712 1.513 1.028-.771.21-1.565.302-2.369.273a8 8 0 0 1-.373-.022c.458-.394.869-.823 1.228-1.279zm1.347-6.431c-.516-1.957-1.527-3.437-3.002-4.398-.647-.421-1.385-.741-2.194-.95.011-.134.026-.268.043-.4.014-.113.03-.216.046-.313.133-.689.332-1.37.589-2.025.099-.25.206-.499.321-.74l.004-.008c.177-.358.376-.719.61-1.105l.092-.152-.003-.001c.544-.851 1.197-1.627 1.942-2.311l.288.341c.672.796 1.304 1.548 1.878 2.237 1.291 1.549 2.966 3.583 3.612 4.48 1.277 1.771 1.893 3.579 1.83 5.375-.049 1.395-.461 2.755-1.195 3.933-.694 1.116-1.661 2.05-2.8 2.708-.636-.318-1.559-.839-2.539-1.599.79-1.575.952-3.28.479-5.072zm-2.575 5.397c-.725.939-1.587 1.55-2.09 1.856-.081-.029-.163-.06-.243-.093l-.065-.026c-1.49-.616-2.747-1.656-3.635-3.01-.907-1.384-1.356-2.993-1.298-4.653.041-1.19.338-2.327.882-3.379.316-.07.638-.114.96-.131l.084-.002c.162-.003.324-.003.478 0 .227.011.454.035.677.07.073 1.513.445 3.145 1.105 4.852.637 1.644 1.694 3.162 3.144 4.515z"/></g><text x="630" y="348" class="text small">Firebase</text><text x="500" y="445" class="text label accent">Infra &amp; Ferramentas</text><rect x="500" y="461" width="88" height="32" rx="8" fill="#172033" stroke="#263244"/><g transform="translate(508.0000 468.0000) scale(0.750000)" fill="#7dd3fc"><path d="M13.983 11.078h2.119a.186.186 0 00.186-.185V9.006a.186.186 0 00-.186-.186h-2.119a.185.185 0 00-.185.185v1.888c0 .102.083.185.185.185m-2.954-5.43h2.118a.186.186 0 00.186-.186V3.574a.186.186 0 00-.186-.185h-2.118a.185.185 0 00-.185.185v1.888c0 .102.082.185.185.185m0 2.716h2.118a.187.187 0 00.186-.186V6.29a.186.186 0 00-.186-.185h-2.118a.185.185 0 00-.185.185v1.887c0 .102.082.185.185.186m-2.93 0h2.12a.186.186 0 00.184-.186V6.29a.185.185 0 00-.185-.185H8.1a.185.185 0 00-.185.185v1.887c0 .102.083.185.185.186m-2.964 0h2.119a.186.186 0 00.185-.186V6.29a.185.185 0 00-.185-.185H5.136a.186.186 0 00-.186.185v1.887c0 .102.084.185.186.186m5.893 2.715h2.118a.186.186 0 00.186-.185V9.006a.186.186 0 00-.186-.186h-2.118a.185.185 0 00-.185.185v1.888c0 .102.082.185.185.185m-2.93 0h2.12a.185.185 0 00.184-.185V9.006a.185.185 0 00-.184-.186h-2.12a.185.185 0 00-.184.185v1.888c0 .102.083.185.185.185m-2.964 0h2.119a.185.185 0 00.185-.185V9.006a.185.185 0 00-.184-.186h-2.12a.186.186 0 00-.186.186v1.887c0 .102.084.185.186.185m-2.92 0h2.12a.185.185 0 00.184-.185V9.006a.185.185 0 00-.184-.186h-2.12a.185.185 0 00-.184.185v1.888c0 .102.082.185.185.185M23.763 9.89c-.065-.051-.672-.51-1.954-.51-.338.001-.676.03-1.01.087-.248-1.7-1.653-2.53-1.716-2.566l-.344-.199-.226.327c-.284.438-.49.922-.612 1.43-.23.97-.09 1.882.403 2.661-.595.332-1.55.413-1.744.42H.751a.751.751 0 00-.75.748 11.376 11.376 0 00.692 4.062c.545 1.428 1.355 2.48 2.41 3.124 1.18.723 3.1 1.137 5.275 1.137.983.003 1.963-.086 2.93-.266a12.248 12.248 0 003.823-1.389c.98-.567 1.86-1.288 2.61-2.136 1.252-1.418 1.998-2.997 2.553-4.4h.221c1.372 0 2.215-.549 2.68-1.009.309-.293.55-.65.707-1.046l.098-.288Z"/></g><text x="534" y="482" class="text small">Docker</text><rect x="596" y="461" width="81" height="32" rx="8" fill="#172033" stroke="#263244"/><g transform="translate(604.0000 468.0000) scale(0.750000)" fill="#7dd3fc"><path d="M12 0L1.605 6v12L12 24l10.395-6V6L12 0zm6 16.59c0 .705-.646 1.29-1.529 1.29-.631 0-1.351-.255-1.801-.81l-6-7.141v6.66c0 .721-.57 1.29-1.274 1.29H7.32c-.721 0-1.29-.6-1.29-1.29V7.41c0-.705.63-1.29 1.5-1.29.646 0 1.38.255 1.83.81l5.97 7.141V7.41c0-.721.6-1.29 1.29-1.29h.075c.72 0 1.29.6 1.29 1.29v9.18H18z"/></g><text x="630" y="482" class="text small">Nginx</text><rect x="685" y="461" width="67" height="32" rx="8" fill="#172033" stroke="#263244"/><g transform="translate(693.0000 468.0000) scale(0.750000)" fill="#7dd3fc"><path d="M13.09 23.549a1.54 1.54 0 0 1-2.18 0L.451 13.089a1.54 1.54 0 0 1 0-2.179l7.191-7.19 2.733 2.733a1.85 1.85 0 0 0 .964 2.326v6.66a1.849 1.849 0 1 0 1.54 0V8.957l2.508 2.508a1.85 1.85 0 1 0 1.09-1.09l-2.634-2.634a1.85 1.85 0 0 0-2.378-2.377L8.73 2.63 10.91.451a1.54 1.54 0 0 1 2.179 0l10.459 10.46a1.54 1.54 0 0 1 0 2.179z"/></g><text x="719" y="482" class="text small">Git</text><rect x="760" y="461" width="81" height="32" rx="8" fill="#172033" stroke="#263244"/><g transform="translate(768.0000 468.0000) scale(0.750000)" fill="#7dd3fc"><path d="M15.852 8.981h-4.588V0h4.588c2.476 0 4.49 2.014 4.49 4.49s-2.014 4.491-4.49 4.491zM12.735 7.51h3.117c1.665 0 3.019-1.355 3.019-3.019s-1.355-3.019-3.019-3.019h-3.117V7.51zm0 1.471H8.148c-2.476 0-4.49-2.014-4.49-4.49S5.672 0 8.148 0h4.588v8.981zm-4.587-7.51c-1.665 0-3.019 1.355-3.019 3.019s1.354 3.02 3.019 3.02h3.117V1.471H8.148zm4.587 15.019H8.148c-2.476 0-4.49-2.014-4.49-4.49s2.014-4.49 4.49-4.49h4.588v8.98zM8.148 8.981c-1.665 0-3.019 1.355-3.019 3.019s1.355 3.019 3.019 3.019h3.117V8.981H8.148zM8.172 24c-2.489 0-4.515-2.014-4.515-4.49s2.014-4.49 4.49-4.49h4.588v4.441c0 2.503-2.047 4.539-4.563 4.539zm-.024-7.51a3.023 3.023 0 0 0-3.019 3.019c0 1.665 1.365 3.019 3.044 3.019 1.705 0 3.093-1.376 3.093-3.068v-2.97H8.148zm7.704 0h-.098c-2.476 0-4.49-2.014-4.49-4.49s2.014-4.49 4.49-4.49h.098c2.476 0 4.49 2.014 4.49 4.49s-2.014 4.49-4.49 4.49zm-.097-7.509c-1.665 0-3.019 1.355-3.019 3.019s1.355 3.019 3.019 3.019h.098c1.665 0 3.019-1.355 3.019-3.019s-1.355-3.019-3.019-3.019h-.098z"/></g><text x="794" y="482" class="text small">Figma</text></svg>