<svg xmlns="http://www.w3.org/2000/svg" width="960" height="555" viewBox="0 0 960 555" role="img" aria-labelledby="title desc"><title id="title">Stack</title><desc id="desc">Tecnologias agrupadas por área</desc><style>
		.text{font-family:ui-monospace,SFMono-Regular,Menlo,Consolas,monospace;fill:#cdd6f4}
		.muted{fill:#8b8ba7}.accent{fill:#b600ff}.cyan{fill:#00add8}
		.label{font-size:15px;font-weight:700}.body{font-size:15px}.small{font-size:13px}
	</style><rect width="960" height="100%" rx="18" fill="#0d0d1a"/><rect x="1" y="1" width="958" height="100%" rx="17" fill="none" stroke="#2a2a40"/><circle cx="28" cy="28" r="5" fill="#b600ff"/><circle cx="46" cy="28" r="5" fill="#9d4edd"/><circle cx="64" cy="28" r="5" fill="#00add8"/><text x="88" y="34" class="text label">~/stack</text><line x1="20" y1="52" x2="940" y2="52" stroke="#2a2a40" stroke-width="1"/><text x="38" y="93" class="text label accent">Linguagens</text><rect x="38" y="109" width="104" height="30" rx="8" fill="#1a1a2e" stroke="#2a2a40"/><text x="50" y="129" class="text small">TypeScript</text><rect x="150" y="109" width="104" height="30" rx="8" fill="#1a1a2e" stroke="#2a2a40"/><text x="162" y="129" class="text small">JavaScript</text><rect x="262" y="109" width="40" height="30" rx="8" fill="#1a1a2e" stroke="#2a2a40"/><text x="274" y="129" class="text small">Go</text><rect x="310" y="109" width="48" height="30" rx="8" fill="#1a1a2e" stroke="#2a2a40"/><text x="322" y="129" class="text small">Lua</text><rect x="366" y="109" width="64" height="30" rx="8" fill="#1a1a2e" stroke="#2a2a40"/><text x="378" y="129" class="text small">Shell</text><rect x="38" y="149" width="56" height="30" rx="8" fill="#1a1a2e" stroke="#2a2a40"/><text x="50" y="169" class="text small">HTML</text><rect x="102" y="149" width="48" height="30" rx="8" fill="#1a1a2e" stroke="#2a2a40"/><text x="114" y="169" class="text small">CSS</text><text x="38" y="237" class="text label accent">Backend</text><rect x="38" y="253" width="80" height="30" rx="8" fill="#1a1a2e" stroke="#2a2a40"/><text x="50" y="273" class="text small">Node.js</text><rect x="126" y="253" width="80" height="30" rx="8" fill="#1a1a2e" stroke="#2a2a40"/><text x="138" y="273" class="text small">Express</text><rect x="214" y="253" width="80" height="30" rx="8" fill="#1a1a2e" stroke="#2a2a40"/><text x="226" y="273" class="text small">Fastify</text><rect x="302" y="253" width="48" height="30" rx="8" fill="#1a1a2e" stroke="#2a2a40"/><text x="314" y="273" class="text small">Gin</text><rect x="38" y="293" width="96" height="30" rx="8" fill="#1a1a2e" stroke="#2a2a40"/><text x="50" y="313" class="text small">WebSocket</text><text x="38" y="381" class="text label accent">Testes</text><rect x="38" y="397" width="56" height="30" rx="8" fill="#1a1a2e" stroke="#2a2a40"/><text x="50" y="417" class="text small">Jest</text><rect x="102" y="397" width="64" height="30" rx="8" fill="#1a1a2e" stroke="#2a2a40"/><text x="114" y="417" class="text small">RSpec</text><rect x="174" y="397" width="104" height="30" rx="8" fill="#1a1a2e" stroke="#2a2a40"/><text x="186" y="417" class="text small">Playwright</text><text x="500" y="93" class="text label accent">Frontend &amp; Mobile</text><rect x="500" y="109" width="64" height="30" rx="8" fill="#1a1a2e" stroke="#2a2a40"/><text x="512" y="129" class="text small">React</text><rect x="572" y="109" width="80" height="30" rx="8" fill="#1a1a2e" stroke="#2a2a40"/><text x="584" y="129" class="text small">Next.js</text><rect x="660" y="109" width="120" height="30" rx="8" fill="#1a1a2e" stroke="#2a2a40"/><text x="672" y="129" class="text small">React Native</text><rect x="788" y="109" width="56" height="30" rx="8" fill="#1a1a2e" stroke="#2a2a40"/><text x="800" y="129" class="text small">Expo</text><rect x="852" y="109" width="56" height="30" rx="8" fill="#1a1a2e" stroke="#2a2a40"/><text x="864" y="129" class="text small">Vite</text><rect x="500" y="149" width="112" height="30" rx="8" fill="#1a1a2e" stroke="#2a2a40"/><text x="512" y="169" class="text small">TailwindCSS</text><rect x="620" y="149" width="88" height="30" rx="8" fill="#1a1a2e" stroke="#2a2a40"/><text x="632" y="169" class="text small">Electron</text><text x="500" y="269" class="text label accent">Banco de Dados &amp; ORM</text><rect x="500" y="285" width="104" height="30" rx="8" fill="#1a1a2e" stroke="#2a2a40"/><text x="512" y="305" class="text small">PostgreSQL</text><rect x="612" y="285" width="80" height="30" rx="8" fill="#1a1a2e" stroke="#2a2a40"/><text x="624" y="305" class="text small">MongoDB</text><rect x="700" y="285" width="64" height="30" rx="8" fill="#1a1a2e" stroke="#2a2a40"/><text x="712" y="305" class="text small">Redis</text><rect x="772" y="285" width="72" height="30" rx="8" fill="#1a1a2e" stroke="#2a2a40"/><text x="784" y="305" class="text small">SQLite</text><rect x="500" y="325" width="72" height="30" rx="8" fill="#1a1a2e" stroke="#2a2a40"/><text x="512" y="345" class="text small">Prisma</text><rect x="580" y="325" width="88" height="30" rx="8" fill="#1a1a2e" stroke="#2a2a40"/><text x="592" y="345" class="text small">Firebase</text><text x="500" y="445" class="text label accent">Infra &amp; Ferramentas</text><rect x="500" y="461" width="72" height="30" rx="8" fill="#1a1a2e" stroke="#2a2a40"/><text x="512" y="481" class="text small">Docker</text><rect x="580" y="461" width="64" height="30" rx="8" fill="#1a1a2e" stroke="#2a2a40"/><text x="592" y="481" class="text small">Nginx</text><rect x="652" y="461" width="48" height="30" rx="8" fill="#1a1a2e" stroke="#2a2a40"/><text x="664" y="481" class="text small">Git</text><rect x="708" y="461" width="64" height="30" rx="8" fill="#1a1a2e" stroke="#2a2a40"/><text x="720" y="481" class="text small">Figma</text></svg>