<svg xmlns="http://www.w3.org/2000/svg" width="960" height="520" viewBox="0 0 960 520" role="img" aria-labelledby="title desc"><title id="title">Stack</title><desc id="desc">Tecnologias agrupadas por área</desc><style>
		.text{font-family:ui-monospace,SFMono-Regular,Menlo,Consolas,monospace;fill:#dbeafe}
		.muted{fill:#93a4b8}.dim{fill:#64748b}.accent{fill:#38bdf8}.strong{fill:#0ea5e9}.soft{fill:#7dd3fc}
		.label{font-size:15px;font-weight:700}.body{font-size:15px}.small{font-size:13px}
		.icon-label{font-family:ui-monospace,SFMono-Regular,Menlo,Consolas,monospace;font-size:8px;font-weight:700;text-anchor:middle}
	</style><rect width="960" height="100%" rx="18" fill="#0d1117"/><rect x="1" y="1" width="958" height="100%" rx="17" fill="none" stroke="#263244"/><circle cx="28" cy="28" r="5" fill="#0ea5e9"/><circle cx="46" cy="28" r="5" fill="#38bdf8"/><circle cx="64" cy="28" r="5" fill="#7dd3fc"/><text x="88" y="34" class="text label">~/stack</text><line x1="20" y1="52" x2="940" y2="52" stroke="#263244" stroke-width="1"/><text x="38" y="93" class="text label accent">Linguagens</text><rect x="38" y="109" width="114" height="32" rx="8" fill="#172033" stroke="#263244"/><text x="55" y="128" class="icon-label" fill="#7dd3fc">TS</text><text x="70" y="130" class="text small">TypeScript</text><rect x="160" y="109" width="114" height="32" rx="8" fill="#172033" stroke="#263244"/><text x="177" y="128" class="icon-label" fill="#7dd3fc">JS</text><text x="192" y="130" class="text small">JavaScript</text><rect x="282" y="109" width="58" height="32" rx="8" fill="#172033" stroke="#263244"/><text x="299" y="128" class="icon-label" fill="#7dd3fc">Go</text><text x="314" y="130" class="text small">Go</text><rect x="348" y="109" width="65" height="32" rx="8" fill="#172033" stroke="#263244"/><text x="365" y="128" class="icon-label" fill="#7dd3fc">Lu</text><text x="380" y="130" class="text small">Lua</text><rect x="38" y="151" width="79" height="32" rx="8" fill="#172033" stroke="#263244"/><path d="M4 5h16v14H4V5zm2 2v10h12V7H6zm1 3 3 3-3 3 1.4 1.4 4.4-4.4-4.4-4.4L7 10zm6 5h4v-2h-4v2z" transform="translate(47 159) scale(0.6667)" fill="#7dd3fc" fill-rule="evenodd"/><text x="70" y="172" class="text small">Shell</text><rect x="125" y="151" width="79" height="32" rx="8" fill="#172033" stroke="#263244"/><text x="142" y="170" class="icon-label" fill="#7dd3fc">H5</text><text x="157" y="172" class="text small">HTML5</text><rect x="212" y="151" width="72" height="32" rx="8" fill="#172033" stroke="#263244"/><text x="229" y="170" class="icon-label" fill="#7dd3fc">C3</text><text x="244" y="172" class="text small">CSS3</text><text x="38" y="237" class="text label accent">Backend</text><rect x="38" y="253" width="93" height="32" rx="8" fill="#172033" stroke="#263244"/><path d="M12 2 21 7v10l-9 5-9-5V7l9-5zm0 2.4L5.2 8.2v7.6l6.8 3.8 6.8-3.8V8.2L12 4.4z" transform="translate(47 261) scale(0.6667)" fill="#7dd3fc" fill-rule="evenodd"/><text x="70" y="274" class="text small">Node.js</text><rect x="139" y="253" width="93" height="32" rx="8" fill="#172033" stroke="#263244"/><text x="156" y="272" class="icon-label" fill="#7dd3fc">Ex</text><text x="171" y="274" class="text small">Express</text><rect x="240" y="253" width="93" height="32" rx="8" fill="#172033" stroke="#263244"/><text x="257" y="272" class="icon-label" fill="#7dd3fc">Fa</text><text x="272" y="274" class="text small">Fastify</text><rect x="341" y="253" width="65" height="32" rx="8" fill="#172033" stroke="#263244"/><text x="358" y="272" class="icon-label" fill="#7dd3fc">Gi</text><text x="373" y="274" class="text small">Gin</text><rect x="38" y="295" width="107" height="32" rx="8" fill="#172033" stroke="#263244"/><path d="M6 7a7 7 0 0 1 11.8 3.2l-1.7 1A5 5 0 0 0 7.4 9L10 9v2H4V5h2v2zm12 10a7 7 0 0 1-11.8-3.2l1.7-1A5 5 0 0 0 16.6 15H14v-2h6v6h-2v-2z" transform="translate(47 303) scale(0.6667)" fill="#7dd3fc" fill-rule="evenodd"/><text x="70" y="316" class="text small">WebSocket</text><text x="38" y="381" class="text label accent">Testes</text><rect x="38" y="397" width="72" height="32" rx="8" fill="#172033" stroke="#263244"/><text x="55" y="416" class="icon-label" fill="#7dd3fc">Je</text><text x="70" y="418" class="text small">Jest</text><rect x="118" y="397" width="79" height="32" rx="8" fill="#172033" stroke="#263244"/><path d="M12 2 21 9l-9 13L3 9l9-7zm0 3.1L6.2 9.5 12 17.9l5.8-8.4L12 5.1z" transform="translate(127 405) scale(0.6667)" fill="#7dd3fc" fill-rule="evenodd"/><text x="150" y="418" class="text small">RSpec</text><rect x="205" y="397" width="114" height="32" rx="8" fill="#172033" stroke="#263244"/><path d="M4 5h16v14H4V5zm2 2v10h12V7H6zm2.2 5.1 2.1 2.1 4.2-4.2 1.3 1.3-5.5 5.5-3.4-3.4 1.3-1.3z" transform="translate(214 405) scale(0.6667)" fill="#7dd3fc" fill-rule="evenodd"/><text x="237" y="418" class="text small">Playwright</text><text x="500" y="93" class="text label accent">Frontend &amp; Mobile</text><rect x="500" y="109" width="79" height="32" rx="8" fill="#172033" stroke="#263244"/><path d="M12 10.3a1.7 1.7 0 1 1 0 3.4 1.7 1.7 0 0 1 0-3.4zm0-4.8c4.8 0 8.7 2.9 8.7 6.5s-3.9 6.5-8.7 6.5S3.3 15.6 3.3 12 7.2 5.5 12 5.5zm0 2c-3.8 0-6.7 2.2-6.7 4.5s2.9 4.5 6.7 4.5 6.7-2.2 6.7-4.5S15.8 7.5 12 7.5zm5.6-1.7c2.4 1.4 1.8 5.9-.6 10s-5.9 7.1-8.3 5.7-1.8-5.9.6-10 5.9-7.1 8.3-5.7zm-1 1.7c-1.3-.8-3.8 1.2-5.6 4.9s-2 6.7-1.3 7.5c1.3.8 3.8-1.2 5.6-4.9s2-6.7 1.3-7.5z" transform="translate(509 117) scale(0.6667)" fill="#7dd3fc" fill-rule="evenodd"/><text x="532" y="130" class="text small">React</text><rect x="587" y="109" width="93" height="32" rx="8" fill="#172033" stroke="#263244"/><text x="604" y="128" class="icon-label" fill="#7dd3fc">Nx</text><text x="619" y="130" class="text small">Next.js</text><rect x="688" y="109" width="128" height="32" rx="8" fill="#172033" stroke="#263244"/><text x="705" y="128" class="icon-label" fill="#7dd3fc">RN</text><text x="720" y="130" class="text small">React Native</text><rect x="824" y="109" width="72" height="32" rx="8" fill="#172033" stroke="#263244"/><text x="841" y="128" class="icon-label" fill="#7dd3fc">Xp</text><text x="856" y="130" class="text small">Expo</text><rect x="500" y="151" width="72" height="32" rx="8" fill="#172033" stroke="#263244"/><path d="M5 3h14l-7 18L5 3zm3 3 4 10 4-10H8z" transform="translate(509 159) scale(0.6667)" fill="#7dd3fc" fill-rule="evenodd"/><text x="532" y="172" class="text small">Vite</text><rect x="580" y="151" width="121" height="32" rx="8" fill="#172033" stroke="#263244"/><path d="M12 6c-3 0-4.9 1.5-5.7 4.5 1.1-1.5 2.5-2.1 4-1.7 2 .5 2.8 2.7 5.7 2.7 3 0 4.9-1.5 5.7-4.5-1.1 1.5-2.5 2.1-4 1.7C15.7 8.2 14.9 6 12 6zm-5.7 6c-3 0-4.9 1.5-5.7 4.5 1.1-1.5 2.5-2.1 4-1.7 2 .5 2.8 2.7 5.7 2.7 3 0 4.9-1.5 5.7-4.5-1.1 1.5-2.5 2.1-4 1.7-2-.5-2.8-2.7-5.7-2.7z" transform="translate(589 159) scale(0.6667)" fill="#7dd3fc" fill-rule="evenodd"/><text x="612" y="172" class="text small">TailwindCSS</text><rect x="709" y="151" width="100" height="32" rx="8" fill="#172033" stroke="#263244"/><text x="726" y="170" class="icon-label" fill="#7dd3fc">El</text><text x="741" y="172" class="text small">Electron</text><text x="500" y="269" class="text label accent">Banco de Dados &amp; ORM</text><rect x="500" y="285" width="114" height="32" rx="8" fill="#172033" stroke="#263244"/><text x="517" y="304" class="icon-label" fill="#7dd3fc">Pg</text><text x="532" y="306" class="text small">PostgreSQL</text><rect x="622" y="285" width="93" height="32" rx="8" fill="#172033" stroke="#263244"/><path d="M12 2c4 4.2 5 8.1 3.4 11.7-1 2.2-2.2 3.6-3.4 4.6-1.2-1-2.4-2.4-3.4-4.6C7 10.1 8 6.2 12 2zm0 4.2c-1.8 2.7-2.2 5-1.1 7.1.3.6.7 1.2 1.1 1.7.4-.5.8-1.1 1.1-1.7 1.1-2.1.7-4.4-1.1-7.1zM11 18h2v4h-2v-4z" transform="translate(631 293) scale(0.6667)" fill="#7dd3fc" fill-rule="evenodd"/><text x="654" y="306" class="text small">MongoDB</text><rect x="723" y="285" width="79" height="32" rx="8" fill="#172033" stroke="#263244"/><path d="M12 3 21 7l-9 4-9-4 9-4zm-7.8 7L12 13.5 19.8 10 21 12l-9 4-9-4 1.2-2zm0 5L12 18.5l7.8-3.5 1.2 2-9 4-9-4 1.2-2z" transform="translate(732 293) scale(0.6667)" fill="#7dd3fc" fill-rule="evenodd"/><text x="755" y="306" class="text small">Redis</text><rect x="810" y="285" width="86" height="32" rx="8" fill="#172033" stroke="#263244"/><text x="827" y="304" class="icon-label" fill="#7dd3fc">Sq</text><text x="842" y="306" class="text small">SQLite</text><rect x="500" y="327" width="86" height="32" rx="8" fill="#172033" stroke="#263244"/><path d="M13 2 21 19l-13 3L3 17 13 2zm-.5 5.2-5.8 9.2 2.1 2.1 8.8-2-5.1-9.3z" transform="translate(509 335) scale(0.6667)" fill="#7dd3fc" fill-rule="evenodd"/><text x="532" y="348" class="text small">Prisma</text><rect x="594" y="327" width="100" height="32" rx="8" fill="#172033" stroke="#263244"/><path d="M5 20 8 4l4 7 3-9 4 18-7 3-7-3zm4.1-5.9-.7 3.8 3.6 1.5 3.8-1.6-1.5-7.7-2 5.9-3.2-1.9z" transform="translate(603 335) scale(0.6667)" fill="#7dd3fc" fill-rule="evenodd"/><text x="626" y="348" class="text small">Firebase</text><text x="500" y="445" class="text label accent">Infra &amp; Ferramentas</text><rect x="500" y="461" width="86" height="32" rx="8" fill="#172033" stroke="#263244"/><path d="M4 8h3v3H4V8zm4 0h3v3H8V8zm4 0h3v3h-3V8zm-4-4h3v3H8V4zm4 0h3v3h-3V4zm4 4h3v3h-3V8zM3 12h17c-.4 4.6-3.4 7-8.7 7C6.7 19 4 16.7 3 12z" transform="translate(509 469) scale(0.6667)" fill="#7dd3fc" fill-rule="evenodd"/><text x="532" y="482" class="text small">Docker</text><rect x="594" y="461" width="79" height="32" rx="8" fill="#172033" stroke="#263244"/><text x="611" y="480" class="icon-label" fill="#7dd3fc">Nx</text><text x="626" y="482" class="text small">Nginx</text><rect x="681" y="461" width="65" height="32" rx="8" fill="#172033" stroke="#263244"/><path d="M7 3a2 2 0 0 1 1.7 3l3.6 3.6a2 2 0 0 1 2.7 2.7l2 2a2 2 0 1 1-1.4 1.4l-2-2a2 2 0 0 1-2.7-2.7L7.3 7.4A2 2 0 1 1 7 3zm0 1.4a.6.6 0 1 0 0 1.2.6.6 0 0 0 0-1.2zm6.7 6.3a.6.6 0 1 0 0 1.2.6.6 0 0 0 0-1.2zm3.4 4.1a.6.6 0 1 0 0 1.2.6.6 0 0 0 0-1.2z" transform="translate(690 469) scale(0.6667)" fill="#7dd3fc" fill-rule="evenodd"/><text x="713" y="482" class="text small">Git</text><rect x="754" y="461" width="79" height="32" rx="8" fill="#172033" stroke="#263244"/><path d="M8 2h4v8H8a4 4 0 0 1 0-8zm0 2a2 2 0 1 0 0 4h2V4H8zm4-2h4a4 4 0 0 1 0 8h-4V2zm2 2v4h2a2 2 0 1 0 0-4h-2zM8 10h4v8H8a4 4 0 0 1 0-8zm0 2a2 2 0 1 0 0 4h2v-4H8zm4-2h4a4 4 0 1 1-4 4v-4zm2 2v2a2 2 0 1 0 2-2h-2zM8 18h4v2a4 4 0 1 1-4-4h4v2H8a2 2 0 1 0 2 2H8v-2z" transform="translate(763 469) scale(0.6667)" fill="#7dd3fc" fill-rule="evenodd"/><text x="786" y="482" class="text small">Figma</text></svg>